<?xml version="1.0" encoding="UTF-8"?>
<!DOCTYPE svg PUBLIC "-//W3C//DTD SVG 1.1//EN" "http://www.w3.org/Graphics/SVG/1.1/DTD/svg11.dtd">
<svg xmlns="http://www.w3.org/2000/svg" version="1.1" width="1080px" height="1080px" style="shape-rendering:geometricPrecision; text-rendering:geometricPrecision; image-rendering:optimizeQuality; fill-rule:evenodd; clip-rule:evenodd" xmlns:xlink="http://www.w3.org/1999/xlink">
<rect x="0" y="0" width="1080" height="1080" fill="#fcfcfc"/>
<g><path fill="#fcfcfc" stroke="#fcfcfc" stroke-width="0.5" d="M 0,0 c 360,0 720,0 1080,0 c 0,360 0,720 0,1080 c -360,0 -720,0 -1080,0 c 0,-360 0,-720 0,-1080 Z M 326.94,647.1 c 0.09,0.29 0.17,0.58 0.26,0.87 c -30.73,19.2 -57.56,42.52 -86.15,64.56 c -6.93,5.7 -15.49,13.42 -16.12,22.97 c 0.01,1.73 2.12,2.03 3.33,1.31 c 4.43,-11.14 9.16,-15.12 18.37,-22.59 c 7.45,-5.77 14.91,-11.54 22.37,-17.29 c 0.1,0.49 0.38,0.83 0.83,1.03 c -4.28,3.83 -8.51,7.71 -12.7,11.65 c -0.8,2.97 0.29,4.06 3.27,3.28 c 37.66,-33.67 81.88,-58.44 123.58,-86.6 c 12.64,-8.99 24.36,-13.62 38.67,-19.14 c 1.46,-0.41 2.45,0.09 2.97,1.52 c 0.7,2.57 -1.1,11.42 -0.61,14.83 c 0.64,39.96 -2.56,79.65 5.68,119.04 c 0.28,3.57 1.46,9.96 0.82,13.18 c -3.01,-7.65 -5.79,-15.4 -8.33,-23.26 c -7.15,-20.94 -8.05,-40.16 -9.31,-61.96 c -0.89,-3.2 0.43,-12.33 -5.3,-10.07 c -0.36,-0.17 -0.54,-0.48 -0.54,-0.91 c 2.27,-14.81 6.88,-28.86 13.83,-42.15 c 0.67,-1.83 0.17,-3.22 -1.48,-4.16 c -3.78,-1.09 -6.15,6.69 -7.57,9.12 c -25.65,59.72 -11.63,123.74 18.85,178.62 c 0.23,0.82 0.24,1.65 0.05,2.49 c -3.34,18.56 -7.58,36.91 -12.75,55.05 c -2.65,5.05 -8.79,8.51 -12.98,12 c -28.83,39.56 -46.28,90.01 -46.01,139 c -10.13,21.33 -20.24,42.67 -30.33,64.02 c -0.23,3.44 3.44,3.79 4.7,1.45 c 9.03,-18.93 18.17,-37.79 27.42,-56.58 c 0.42,-0.15 0.73,-0.03 0.94,0.37 c 1.33,4.04 3.33,7.53 5.83,10.92 c -1.11,10.53 -3.53,21.17 -3.42,31.84 c -0.45,3.8 3.54,4.44 3.73,0.98 c -0.22,-10.58 1.78,-20.45 3.36,-30.82 c 1.92,-1.01 3.87,-2.02 5.85,-3.03 c 15.91,-10.62 34.85,-45.44 42.45,-63.37 c 0.31,1.39 0.44,2.8 0.38,4.23 c -1.42,27.48 -3.57,54.78 -6.5,82.14 c 0.19,4.1 5.19,3.8 5.4,-0.17 c 3.47,-33.28 6.24,-66.32 7.64,-99.77 c 0.19,-1.4 0.45,-2.79 0.76,-4.16 c 7.68,-25.61 17.84,-65.68 12.1,-91.9 c 1.88,-6.86 3.95,-13.66 6.23,-20.38 c 0.65,0.22 1.03,0.68 1.15,1.37 c 1.57,6.81 3.15,13.61 4.74,20.42 c 0.65,2.05 1.98,2.69 3.99,1.94 c 2.27,-1.88 -0.39,-8 -1.03,-10.48 c 0.5,-2.89 -1.81,-4.25 -0.9,-7.23 c 0.08,1.28 0.47,2.44 1.18,3.5 c -0.29,6.05 2.49,3.21 4.26,5.78 c 11.9,20.81 23.82,41.62 35.76,62.4 c 2.53,3.27 6.22,0.43 4.09,-3.06 c -13.21,-22.91 -26.35,-45.85 -39.43,-68.84 c -1.72,-2.8 -0.9,-5.79 -2.21,-8.73 c 0.07,-1.24 0.54,-1.37 1.41,-0.38 c 3.68,4.58 8.26,8.61 11.45,13.57 c 11.03,21.01 22.05,42.01 33.08,63.01 c 1.87,1.49 3.3,1.15 4.3,-1 c -0.04,-2.9 -13.67,-27.74 -16.12,-32.26 c 0.19,-0.07 0.38,-0.15 0.57,-0.22 c 1.87,0.65 6.65,10.02 8.43,12.02 c 42.71,61.49 82.39,125.93 123.74,188.44 c 3.09,2.62 5.87,-0.69 3.8,-3.57 c -31.43,-48.37 -62.78,-96.79 -94.05,-145.27 c -1.17,-1.25 0.35,-3.06 0.48,-4.47 c 0.71,0.27 1.3,0.7 1.79,1.29 c 13.05,13.63 26.05,27.3 39.01,41.02 c 21.35,26.32 42.66,52.69 63.92,79.08 c 2.53,2.61 6.28,-0.47 3.83,-3.65 c -9.97,-12.33 -19.95,-24.66 -29.93,-36.98 c -1.02,-1.72 3.46,-2.46 1.26,-5.57 c -12.01,-12.65 -24.01,-25.31 -35.99,-37.99 c -36.08,-43.08 -69.02,-87.42 -96.76,-136.41 c -3.52,-6.22 -6.79,-12.58 -9.82,-19.07 c -0.96,-1.64 -2.78,-0.17 -3.83,-2.2 c -5.09,-22.09 -12.55,-48.93 -14.03,-71.22 c 4.92,-26.31 16.13,-54.49 27.62,-78.7 c 0.18,0 0.35,0.01 0.52,0.01 c 3.14,10.14 6.27,24.23 6.2,34.7 c -5.71,26.02 -11.95,51.63 -19.66,77.18 c -1.06,4.11 3.63,5.75 5.28,2.49 c 1.52,-5.21 3.05,-10.41 4.6,-15.61 c 0.63,0.12 1.18,0.44 1.67,0.96 c 1.59,0.54 2.81,0.07 3.64,-1.41 c 5.36,-21.56 13.53,-41.73 10.97,-64.41 c 1.42,-8.69 2.81,-17.38 4.17,-26.08 c -0.69,-2.6 -2.23,-3.26 -4.61,-1.99 c -1.26,1.41 -1.96,5.94 -2.13,7.88 c -0.14,0.14 -0.28,0.28 -0.41,0.41 c -1.51,-7.19 -3.37,-14.33 -5.58,-21.43 c -0.24,-1.44 1.8,-7.5 3.9,-5.75 c 24.88,28.89 53.97,54.28 82.71,79.21 c 9.64,9.67 19.44,19.18 29.41,28.51 c 1.49,1.55 3.34,0.06 5.13,0.76 c 14.28,12.1 28.55,24.19 42.83,36.28 c 3.08,2.34 5.98,-0.77 3.54,-3.54 c -23.21,-19.77 -46.41,-39.55 -69.6,-59.34 c -3.11,-2.54 -6.03,-5.28 -8.77,-8.21 c -32.24,-34.97 -61.57,-72.8 -90.57,-110.45 c -0.57,-0.68 -0.96,-1.47 -1.15,-2.34 c 0.27,-0.24 10.61,1 12.14,1.19 c 3.1,0.43 16.38,0.17 18.33,1.91 c 34.61,52.77 75.73,97.39 118.59,143.31 c 2.75,3.12 6.8,0.3 4.09,-3.13 c -41.3,-44.74 -81.27,-88.39 -115,-139.37 c 0.4,-1.38 3.93,-0.26 4.99,-0.37 c 34.05,3.62 65.96,10.5 98.54,21.19 c 40.15,13.23 80.31,26.44 120.47,39.62 c 4.7,1.29 5.03,-3.94 0.82,-4.72 c -42.1,-13.94 -84.19,-27.92 -126.27,-41.94 c -33.96,-10.94 -66.92,-17.25 -102.34,-20.88 c -4.27,-1.12 -5.41,-12.53 -10.98,-10.22 c -3.55,3.52 3.56,8.26 1.57,9.5 c -10.29,-0.29 -20.51,-1.31 -30.65,-3.05 c -2.83,-3.12 -5.55,-6.35 -8.17,-9.68 c -2.85,-5.29 -10.62,-12.52 -14.99,-17.41 c 2.9,-1.82 5.76,-3.77 8.57,-5.82 c 6.48,-5.21 17.94,-15.41 24.17,-19.62 c 0.21,0.18 0.42,0.35 0.63,0.53 c -3.13,6.48 -5.78,12.91 -9.7,18.96 c 0.08,0.97 0.27,1.93 0.55,2.87 c -0.31,0.94 -0.48,1.91 -0.51,2.9 c 0.6,2.44 3.28,3.36 4.97,1.32 c 5.92,-16.96 17.78,-31.18 25.81,-47.23 c 1.51,-2.08 3.03,-4.13 4.57,-6.15 c 0.21,0.63 0.21,1.27 0.02,1.93 c -1.4,4.22 -2.72,8.48 -3.94,12.77 c -2.6,7.94 -5.4,15.81 -8.42,23.6 c -0.08,2.91 3.05,4.36 4.95,2.07 c 6.85,-15.72 11.71,-32.07 15.35,-48.78 c 10.64,-10.96 18.88,-22.91 27.55,-35.41 c 5.45,-5.19 10.95,-10.32 16.51,-15.38 c 1.45,-3.33 -1.01,-4.5 -3.93,-4.25 c 0.1,-0.24 0.2,-0.48 0.29,-0.72 c 1.31,-3.02 10.41,-12.64 8.91,-15.58 c -3.78,-5.26 -10.86,7.79 -12.98,10.81 c -4.17,6.8 -8.47,13.5 -12.91,20.11 c -6.51,6.73 -13,13.46 -19.46,20.21 c -1.11,-0.58 -0.31,-3.2 -0.45,-4.23 c 1.66,-12.47 4.82,-27.33 0.5,-39.53 c -1.18,-2.72 -2.47,-5.36 -3.86,-7.92 c 1.89,-0.68 3.75,-1.39 5.59,-2.15 c 1.38,-1.52 1.99,-3.3 1.84,-5.34 c 0.63,-4.02 28.65,-11.71 20.35,-16.55 c -8.18,-2.36 -29.18,17.69 -35.85,15.89 c -2.9,-1.11 -9.05,-7.01 -12.04,-5.77 c -4.24,3.05 0.92,5.59 3.23,7.29 c -1.4,0.69 -3.91,1.62 -5.4,0.63 c -5.38,-5.97 -10.47,-11.18 -17.26,-15.61 c -0.49,-0.31 -0.65,-0.73 -0.49,-1.26 c 27.45,-31.05 58.84,-55.23 90.51,-81.52 c 14.83,-12.84 32.58,-29.64 42.34,-46.64 c 2.06,-3.15 0.02,-6.63 -3.66,-4.63 c -20.62,31.43 -50.04,52.72 -78.47,76.43 c -21.07,18.12 -43.46,38.52 -60.81,60.13 c -0.5,2.32 0.44,3.55 2.81,3.7 c 1.03,-0.56 2.07,-1.09 3.12,-1.58 c 3.07,0.38 12.52,9.23 14.69,12.06 c 0.43,0.53 0.44,1.04 0.04,1.53 c -4.04,0.61 -7.96,1.69 -11.75,3.23 c -3.01,0.06 -6.02,0.1 -9.03,0.12 c -0.85,0.04 -1.09,-0.3 -0.71,-1.01 c 1.49,-1.47 2.93,-2.97 4.31,-4.51 c 0.62,-2.62 -0.41,-3.9 -3.07,-3.82 c -10.66,4.95 -32.08,37.53 -37.24,48.68 c -0.83,1.01 -1.78,1.91 -2.83,2.7 c -0.23,0.1 -0.47,0.2 -0.7,0.3 c 0,-4.29 -0.03,-35.63 1.57,-37.12 c 2.05,-1.97 4.27,-3.7 6.67,-5.21 c 1.2,-3.07 0.15,-4.55 -3.17,-4.42 c -1.21,0.44 -2.42,0.86 -3.64,1.23 c -0.41,-0.33 -0.59,-0.77 -0.53,-1.31 c 1.21,-44.34 6.63,-87.3 14.15,-130.97 c 2.43,-10.99 4.75,-22.01 6.95,-33.05 c 0.64,-4 -4.14,-4.65 -5.56,-1.22 c -13.48,55.32 -19.86,113.53 -21.23,170.46 c -0.15,0.82 -0.54,1.51 -1.18,2.06 c -28.27,19.13 -40.47,43.13 -35.25,77.71 c -4.62,19.42 3.17,39.05 10.4,56.8 c 1.12,1.88 -3.45,4.23 -4.33,5.44 c -25.32,21.5 -51.8,42.11 -73.68,67.23 c -0.93,2.42 1.42,4 3.56,4.13 Z M 460.31,425 c 0.66,2.87 3.41,3.63 5.06,1.04 c 10.67,-34.07 24.46,-69.99 43.9,-100.08 c 12.81,-20.27 25.69,-39.68 40.41,-58.62 c 1.73,-3.34 -1.59,-5.83 -4.33,-3.47 c -39,48.8 -68.18,100.68 -85.04,161.13 Z M 510.81,438.99 c 0.75,-1.49 4.73,-3.6 6.21,-2.5 c 4.32,5.3 6.39,13.5 5.47,20.16 c -0.56,-1.9 -1.22,-3.78 -1.99,-5.63 c -2.36,-4.73 -6.07,-8.28 -9.69,-12.03 Z M 462.1,490.94 c -0.7,3.07 2.6,5.4 5.11,2.92 c 2.71,-6.57 5.65,-13.04 8.83,-19.41 c 6.8,-13.82 15.93,-20.85 27.45,-30.44 c 1.42,-1.02 2.49,-0.7 3.21,0.96 c 18.59,27.78 14.54,46.54 -3.93,72.4 c -10.15,12.83 -27.81,25.54 -40.33,36.58 c -2.69,2.66 -7.31,4.57 -9.37,7.56 c -0.64,0.21 -1.18,0.05 -1.61,-0.5 c -3.5,-3.82 -6.93,-7.71 -10.28,-11.65 c -0.71,-0.89 -3.64,-0.9 -2.7,-2.48 c 1.45,-2.25 5.16,-4.05 3.42,-7.21 c -2.84,-2.6 -4.15,0.19 -6.45,1.38 c -1.47,-0.16 -2.82,0.11 -4.07,0.82 c -0.38,1.61 -0.79,3.21 -1.24,4.78 c -4.31,4.03 -8.69,7.99 -13.15,11.86 c -0.57,0.65 -1.27,0.98 -2.12,0.99 c -1.24,-1.82 -2.31,-3.74 -3.22,-5.77 c -6.37,-12.69 -12.69,-25.83 -14.36,-40.06 c 4.25,-11.81 18.89,-19.29 28.67,-26.09 c 1.3,0.73 2.71,1.13 4.21,1.19 c 0.42,0.4 0.82,0.82 1.19,1.26 c -1.98,14.5 0.36,26.69 5.1,40.28 c 1.94,3.04 5.8,1.32 5.41,-1.78 c -6.33,-18.68 -7.32,-33.77 -0.59,-52.6 c 8.82,-9.62 29.82,-34.23 42.25,-36.67 c 2.37,0.05 9.33,0.16 11.13,1.29 c -5.2,4.38 -9.75,9.36 -13.64,14.97 c -12.99,12.73 -21.59,26.19 -29.57,42.46 c -1.21,3.52 -9.44,19.79 -2.03,19.87 c 3.29,-0.39 2.88,-6.83 4.03,-9.14 c 0.73,-2.41 7.02,-17.31 8.65,-17.77 Z M 460.08,447.88 c -0.11,-0.25 -0.22,-0.49 -0.33,-0.73 c 1.35,-2.52 3.03,-4.8 5.05,-6.83 c 1.31,-0.48 2.6,-0.46 3.86,0.05 c -2.98,2.37 -5.84,4.87 -8.58,7.51 Z M 396.06,500 c -0.03,-26.68 8.91,-40.01 29.36,-56.12 c 0.91,-0.82 1.47,-0.63 1.66,0.57 c -0.38,8.3 0.39,28.97 -1.26,35.82 c -8.71,6.86 -22.93,14.68 -29.36,23.42 c -0.31,-1.19 -0.45,-2.42 -0.4,-3.69 Z M 395.14,531.05 c 3.92,10.97 9.24,21.11 14.53,31.65 c 1.19,2.25 -1.82,3.54 -3.12,4.78 c -2.5,-0.42 -10.25,-28.93 -11.31,-32.97 c 0.05,-1.16 0.02,-2.31 -0.1,-3.46 Z M 418.03,566 c 1.93,-2.79 11.41,-10 14.31,-13.23 c 0.51,-0.47 1.08,-0.55 1.69,-0.25 c 5.57,9.55 10.82,19.27 15.76,29.16 c 0.66,1.3 0.31,2.21 -1.03,2.73 c -4.3,1.76 -11.13,3.69 -14.19,6.6 c -3.95,2.88 -4.65,-1.14 -6.15,-3.98 c -3.58,-6.96 -7.04,-13.97 -10.39,-21.03 Z M 450.23,568.8 c 0.13,0.06 0.27,0.12 0.4,0.18 c 0.96,1.83 9.45,9.48 8.88,11.15 c -4.34,4.07 -8.67,-10.01 -9.28,-11.33 Z M 409.16,574 c -0.07,-1.17 3.36,-4.56 4.58,-3.22 c 3.88,7.77 7.84,15.5 11.87,23.2 c 0.3,1.61 -0.37,2.26 -2.02,1.94 c -1.79,-0.7 -13.08,-19.11 -14.43,-21.92 Z M 459.77,586.93 c 5.22,-4.24 6.82,0.77 9.78,4.49 c -0.56,0.89 -6.67,-0.53 -7.78,-0.71 c -1.03,-1.06 -1.7,-2.32 -2,-3.78 Z M 450,674 c -0.01,-5.5 0.03,-11 0.13,-16.5 c 0.22,-1.88 0.67,-11.56 1.33,-12.28 c 1.54,2.44 2.99,4.95 4.34,7.51 c 4.59,2.73 5.86,6.8 9.19,10.75 c 2.75,2.42 5.81,-0.45 3.67,-3.54 c -5.78,-7.88 -11.03,-15 -15.15,-23.93 c -2.29,-4.64 2.97,-31.44 4.09,-38.06 c 0.13,-0.38 0.4,-0.59 0.79,-0.63 c 4.47,6.71 9.19,13.27 14.15,19.66 c 2.52,8.49 4.95,16.99 7.31,25.51 c -8,17.16 -15.44,34.18 -21.62,52.17 c -2.06,6.29 -3.98,12.61 -5.76,18.96 c -1.3,-13.06 -2.64,-26.44 -2.47,-39.62 Z M 536.35,674.97 c -0.47,0.44 -0.92,0.89 -1.38,1.34 c -14.45,-13.49 -28.12,-27.73 -41.02,-42.72 c -0.56,-0.58 -0.83,-1.27 -0.81,-2.06 c 0.96,-2.51 2.37,-6.12 -1.63,-6.47 c -1.5,-0.22 -2.4,2.06 -3.54,1.23 c -3.37,-3.85 -6.56,-7.84 -9.57,-11.98 c -1.02,-3.75 -2.08,-7.48 -3.16,-11.19 c -3.06,-2.86 -4.25,1.33 -5.35,0.32 c -0.78,-0.89 -4.53,-5.1 -3.27,-6.09 c 2.29,0.19 4.57,0.46 6.84,0.83 c 1.4,0.44 2.59,1.21 3.56,2.31 c 19.27,25.23 39.04,50.06 59.33,74.48 Z M 444.27,601 c -0.38,-2.13 3.7,-3.8 3.68,-1.52 c -0.75,6.76 -1.56,13.5 -2.42,20.22 c -0.52,-6.22 -0.94,-12.45 -1.26,-18.7 Z M 435.99,623 c -0.54,0.32 -0.84,0.81 -0.91,1.44 c -1.48,-0.56 -2.67,-0.18 -3.55,1.14 c -0.87,-0.25 -0.55,-7.31 -0.04,-8.31 c 1.66,1.77 3.16,3.68 4.5,5.73 Z M 436.2,624.78 c 0.23,0.07 0.46,0.15 0.69,0.22 c 1.54,1.13 2.49,2.64 2.82,4.53 c 0.74,19.01 1.82,38 3.24,56.97 c -0.48,21.84 -0.81,43.18 0.85,65 c -0.68,4.09 -1.43,8.16 -2.27,12.21 c -4.77,-17.85 -6.83,-33.67 -7.29,-52.21 c -0.35,-14 -0.39,-28 -0.13,-42 c 0.31,-9.6 3.55,-37.02 2.09,-44.72 Z M 485.14,631.85 c 0.09,0.75 0.09,1.5 0.02,2.25 c -0.43,0 -0.85,0.01 -1.28,0.02 c -0.07,-0.42 -0.13,-0.84 -0.2,-1.26 c 0.15,-0.78 0.64,-1.12 1.46,-1.01 Z M 350.9,640.32 c -0.01,0.13 -0.02,0.27 -0.03,0.4 c -0.01,0.45 -0.18,0.82 -0.52,1.13 c -23.94,15.55 -48.02,30.55 -70.32,48.45 c -0.43,-0.06 -0.86,-0.11 -1.28,-0.16 c 0.24,-0.68 0.63,-1.26 1.16,-1.75 c 9.28,-7.44 18.78,-14.59 28.5,-21.45 c 9.65,-6.36 19.31,-12.73 28.97,-19.08 c 4.4,-2.72 8.9,-5.23 13.52,-7.54 Z M 405.21,687 c 0.29,-6.45 0.68,-12.9 1.15,-19.34 c 0.01,-1.04 0.39,-1.91 1.14,-2.6 c 0.79,12.13 1.68,24.27 2.67,36.44 c 1.96,14.44 5.5,28.49 10.61,42.16 c 2.14,10.28 15.63,29.69 14.31,38.84 c -0.54,3.44 -1.05,6.86 -1.53,10.27 c -0.57,-0.33 -0.99,-0.81 -1.24,-1.43 c -8.42,-17.2 -15.38,-34.98 -20.89,-53.32 c -4.35,-16.76 -5.6,-33.77 -6.22,-51.02 Z M 528.99,905.12 c 0.01,0.27 0.02,0.55 0.04,0.83 c -0.68,-0.02 -1.22,-0.3 -1.64,-0.84 c -16.99,-18.62 -32.72,-36.41 -43.51,-59.53 c -5.7,-5.88 -12.6,-26.16 -16.51,-34.32 c -1.11,-2.13 -2.75,-2.7 -4.93,-1.7 c -0.4,0.04 -0.65,-0.14 -0.75,-0.53 c -2.19,-11.9 -4.31,-23.8 -6.35,-35.69 c -0.01,-1.72 0.01,-3.43 0.09,-5.13 c 2.99,12.88 6.07,25.81 9.24,38.78 c 0.21,0.45 0.53,0.81 0.96,1.06 c 0.96,0.33 1.93,0.62 2.91,0.88 c 2.7,6.09 5.76,12.01 9.16,17.74 c 15.57,27.15 32.67,53.3 51.29,78.45 Z M 427.07,850.98 c 1.51,-5.43 7.44,-35.21 9.07,-37.26 c 0.66,-0.77 2.17,0.68 2.81,0.91 c 1.52,2.05 5.37,7.18 4.83,9.71 c -2.81,7.94 -5.44,15.95 -7.9,24.01 c -2.64,0.76 -5.17,1.85 -7.59,3.25 c -0.69,0.31 -1.1,0.1 -1.22,-0.62 Z M 373.21,1025.77 c 2.79,-18.69 6.64,-37.17 11.56,-55.43 c 16.15,-34.74 29.65,-69.71 39.12,-106.88 c 0.27,-1.67 11.18,-10.91 9.83,-7.01 c -4.88,19.88 -7.46,40.71 -9.52,61.05 c -1.09,9.71 -0.96,25.77 -3.57,34.53 c -7.74,19.33 -29.27,64.08 -47.42,73.74 Z M 364.51,996 c 1.8,-28.07 11.07,-59.57 22.75,-85.21 c 5.57,-4.66 12.24,-17.63 17.13,-23.92 c 0.95,-1.1 1.35,-0.95 1.19,0.46 c -9.49,25.11 -16.98,50.08 -23.66,76.05 c -5.29,11.59 -10.8,23.05 -16.52,34.4 c -0.52,-0.47 -0.81,-1.06 -0.89,-1.78 Z M 365.75,1011 c 1.3,-6.42 8.61,-17.31 10.6,-24.7 c -0.01,1.02 0.02,2.04 0.09,3.06 c -3.24,10.87 -4.63,22.27 -6.9,33.38 c -1.98,-3.69 -3.24,-7.6 -3.79,-11.74 Z"/></g>
<g><path fill="#fbfbfb" stroke="#fbfbfb" stroke-width="0.5" d="M 327.2,647.97 c -0.09,-0.29 -0.17,-0.58 -0.26,-0.87 c 23.3,-25.92 50.36,-47.02 77.03,-69.38 c 0.54,-0.25 0.96,-0.13 1.27,0.36 c 4.24,6.92 8.62,13.73 13.12,20.45 c 0,0.65 -0.32,1.09 -0.96,1.31 c -29.22,16.99 -62.4,29.06 -90.2,48.13 Z"/></g>
<g><path fill="#cecece" d="M 408.89,892.07 c 0.28,0.06 0.57,0.12 0.85,0.18 c -3.61,11.5 -7.63,22.85 -12.07,34.06 c -0.21,0.37 -0.51,0.6 -0.92,0.68 c -0.17,-0.03 -0.34,-0.05 -0.51,-0.08 c 3.66,-11.55 7.63,-22.99 11.91,-34.33 c 0.15,-0.31 0.4,-0.48 0.74,-0.51 Z"/></g>
<g><path fill="#6f6f6f" d="M 432.21,475.34 c 0.23,-0.1 0.47,-0.2 0.7,-0.3 c -0.07,0.26 -0.63,1.04 -0.7,0.3 Z M 537.99,678.86 c 0.34,0.06 0.68,0.11 1.03,0.17 c 0.01,0.32 0.03,0.64 0.05,0.96 c -0.5,-0.25 -0.86,-0.62 -1.08,-1.13 Z M 539.07,679.99 c 0.32,0.08 0.64,0.17 0.97,0.25 c 0.01,0.23 0.03,0.45 0.04,0.67 c -0.46,-0.17 -0.79,-0.48 -1.01,-0.92 Z M 540.08,680.91 c 0.29,0.13 0.59,0.26 0.88,0.39 c 1.15,-0.51 4.4,2.97 3.36,3.75 c -1.37,-0.89 -2.62,-1.95 -3.75,-3.16 c -0.26,-0.28 -0.42,-0.6 -0.49,-0.98 Z M 452.23,791.16 c 0.3,-0.03 0.6,-0.05 0.9,-0.07 c 0.72,0.81 0.89,1.74 0.52,2.8 c -0.24,0.01 -0.48,0.02 -0.72,0.03 c -0.82,-0.74 -1.05,-1.66 -0.7,-2.76 Z M 464.22,821.35 c 0.27,-0.03 0.54,-0.06 0.81,-0.08 c 1.05,0.03 1.09,1.86 1.11,2.62 c -1.3,0.34 -1.33,-1.79 -1.92,-2.54 Z"/></g>
<g><path fill="#bfbfbf" d="M 459.04,448.24 c -0.09,0.22 -0.18,0.44 -0.27,0.67 c -0.24,0.1 -0.49,0.19 -0.73,0.29 c 0.01,-0.67 0.34,-0.99 1,-0.96 Z M 355.17,638.05 c 0.03,0.22 0.06,0.45 0.09,0.67 c -0.47,0.07 -0.93,0.13 -1.39,0.19 c 0.21,-0.6 0.64,-0.88 1.3,-0.86 Z M 278.75,690.14 c 0.42,0.05 0.85,0.1 1.28,0.16 c -1.56,1.44 -3.26,2.67 -5.1,3.69 c 0.07,-0.43 0.14,-0.86 0.21,-1.3 c 0.34,-1.34 2.17,-2.71 3.61,-2.55 Z M 274.02,693.02 c -0.09,0.71 0.22,1.03 0.91,0.97 c -0.38,0.69 -0.97,0.99 -1.78,0.91 c -0.36,-0.03 -0.72,-0.07 -1.08,-0.1 c 0.53,-0.71 1.18,-1.3 1.95,-1.78 Z M 412.39,879.75 c 0.31,0.32 0.59,0.67 0.84,1.03 c -0.12,0.44 -0.25,0.89 -0.37,1.33 c -0.29,0.05 -0.59,0.1 -0.88,0.15 c 0.05,-0.85 0.19,-1.68 0.41,-2.51 Z"/></g>
<g><path fill="#626262" d="M 562.94,449.17 c -0.09,0.24 -0.19,0.48 -0.29,0.72 c -0.28,0.94 -0.42,0.91 -0.44,-0.11 c 0.16,-0.31 0.41,-0.51 0.73,-0.61 Z M 462.1,490.94 c -0.18,-0.71 -0.01,-1.31 0.5,-1.81 c 0.55,0.81 0.38,1.41 -0.5,1.81 Z M 445.26,782.28 c 0.31,-0.07 0.62,-0.15 0.94,-0.22 c 0.59,0.71 0.88,1.54 0.87,2.5 c -0.22,1.7 -0.65,1.76 -1.3,0.18 c -0.3,-0.8 -0.47,-1.62 -0.51,-2.46 Z M 531.21,909.03 c 0.25,0.08 0.5,0.16 0.75,0.24 c 1.17,0.3 1.85,1.05 2.04,2.28 c -0.64,0.4 -2.83,-1.47 -2.79,-2.52 Z"/></g>
<g><path fill="#767676" d="M 357.27,636.86 c -0.31,0.99 -0.99,1.61 -2.01,1.86 c -0.03,-0.22 -0.06,-0.45 -0.09,-0.67 c -0.04,-1 1.4,-1.11 2.1,-1.19 Z M 439.77,799.79 c -0.53,0.01 -1.06,0.03 -1.59,0.04 c -0.83,-3.56 1.97,-2.93 1.59,-0.04 Z M 457.69,819.67 c -0.3,0.06 -0.59,0.12 -0.88,0.17 c -1.01,0.08 -1.07,-2.01 -0.43,-2.53 c 0.71,0.63 1.15,1.42 1.31,2.36 Z M 395.91,928.87 c 0.27,0.1 0.54,0.19 0.8,0.29 c -0.03,0.35 -0.21,0.58 -0.52,0.7 c -0.33,-0.05 -0.65,-0.1 -0.98,-0.16 c 0.04,-0.44 0.27,-0.72 0.7,-0.83 Z"/></g>
<g><path fill="#818181" d="M 431.96,484.21 c 0.25,0.33 0.49,0.66 0.74,1 c -0.33,1.63 -0.78,3.24 -1.34,4.82 c -0.37,-0.44 -0.77,-0.86 -1.19,-1.26 c 0.65,-1.53 1.25,-3.05 1.79,-4.56 Z M 439.28,804.21 c 0.32,-0.04 0.65,-0.09 0.97,-0.14 c 1.02,-0.23 0.88,2.19 0.27,2.61 c -0.52,-0.76 -0.94,-1.58 -1.24,-2.47 Z"/></g>
<g><path fill="#7c7c7c" d="M 488.97,539.9 c -0.24,0.08 -0.48,0.16 -0.73,0.24 c -0.03,-0.84 0.35,-1.39 1.14,-1.65 c 0.45,0.62 0.31,1.09 -0.41,1.41 Z M 432.28,609.28 c 0.24,0 0.48,0 0.72,0 c 0.73,-0.3 1.62,1.13 0.67,1.53 c -0.66,-0.33 -1.13,-0.84 -1.39,-1.53 Z M 415.12,872.66 c -0.2,0.94 0.42,4.44 -1.23,4.26 c -0.18,-0.05 -0.36,-0.1 -0.54,-0.14 c 0.6,-1.17 0.32,-3.78 1.77,-4.12 Z"/></g>
<g><path fill="#d4d4d4" d="M 438.18,799.83 c 0.53,-0.01 1.06,-0.03 1.59,-0.04 c 0.35,1.41 0.51,2.84 0.48,4.28 c -0.32,0.05 -0.65,0.1 -0.97,0.14 c -0.9,-1.33 -1.27,-2.79 -1.1,-4.38 Z M 456.81,819.84 c 0.29,-0.05 0.58,-0.11 0.88,-0.17 c 0.17,0.5 0.34,1 0.52,1.5 c -0.04,0.21 -0.08,0.42 -0.12,0.63 c -1.21,0.36 -1.32,-1.17 -1.28,-1.96 Z M 411.27,883.8 c 0.28,-0.01 0.55,-0.01 0.82,-0.01 c -0.08,0.81 -0.18,1.62 -0.3,2.42 c -0.32,-0.13 -0.64,-0.26 -0.95,-0.39 c 0.12,-0.68 0.26,-1.35 0.43,-2.02 Z"/></g>
<g><path fill="#c9c9c9" d="M 540.04,680.24 c 0.58,0.1 0.88,0.46 0.92,1.06 c -0.29,-0.13 -0.59,-0.26 -0.88,-0.39 c -0.01,-0.22 -0.03,-0.44 -0.04,-0.67 Z M 445.14,775.12 c 0.21,-0.09 0.41,-0.18 0.61,-0.27 c 0.16,2.4 0.31,4.81 0.45,7.21 c -0.32,0.07 -0.63,0.15 -0.94,0.22 c -0.17,-1.16 -0.34,-2.31 -0.49,-3.47 c 0.06,-1.23 0.19,-2.46 0.37,-3.69 Z M 530.01,907.11 c 0.58,0.15 0.87,0.52 0.88,1.12 c -0.5,-0.21 -0.79,-0.58 -0.88,-1.12 Z"/></g>
<g><path fill="#686868" d="M 459.04,448.24 c 0.34,-0.12 0.69,-0.24 1.04,-0.36 c -0.32,0.49 -0.75,0.84 -1.31,1.03 c 0.09,-0.23 0.18,-0.45 0.27,-0.67 Z M 458.04,449.2 c 0.24,-0.1 0.49,-0.19 0.73,-0.29 c -0.01,1.16 -1.82,3.03 -2.92,2.5 c 0.23,-1.26 0.96,-1.99 2.19,-2.21 Z M 432.8,482.66 c -0.18,0.06 -0.37,0.12 -0.55,0.18 c 0.13,-0.61 0.31,-0.67 0.55,-0.18 Z M 445.75,774.85 c -0.2,0.09 -0.4,0.18 -0.61,0.27 c -0.25,-0.77 -0.13,-1.45 0.36,-2.05 c 0.47,0.52 0.55,1.11 0.25,1.78 Z M 445.14,775.12 c -0.18,1.23 -0.31,2.46 -0.37,3.69 c -1.2,0.28 -1.2,-3.78 0.37,-3.69 Z M 463.37,819.38 c 0.24,-0.06 0.49,-0.12 0.74,-0.19 c 0.41,-0.04 0.66,0.13 0.75,0.53 c -0.29,0.02 -0.59,0.04 -0.89,0.06 c -0.28,-0.01 -0.48,-0.14 -0.6,-0.4 Z"/></g>
<g><path fill="#dedede" d="M 536.35,674.97 c 0.79,0.93 1.58,1.85 2.36,2.78 c -0.23,0.38 -0.48,0.75 -0.72,1.11 c -1.16,-0.67 -2.16,-1.52 -3.02,-2.55 c 0.46,-0.45 0.91,-0.9 1.38,-1.34 Z M 269,696.93 c 0.42,-0.04 0.83,-0.08 1.24,-0.11 c -0.14,0.38 -0.27,0.76 -0.41,1.14 c -0.45,-0.2 -0.73,-0.54 -0.83,-1.03 Z"/></g>
<g><path fill="#9a9a9a" d="M 437.04,604.22 c 1.61,0.01 1.64,-2.35 -0.28,-2.54 c 2.94,-2.49 2.49,4.12 1.82,5.11 c -0.68,-0.75 -1.19,-1.61 -1.54,-2.57 Z"/></g>
<g><path fill="#adadad" d="M 485.14,631.85 c -0.82,-0.11 -1.31,0.23 -1.46,1.01 c -0.3,0.04 -0.5,-0.09 -0.61,-0.4 c -1.14,-3.26 0.89,-2.54 2.07,-0.61 Z M 485.14,631.85 c 0.67,0.75 0.67,1.5 0.02,2.25 c 0.07,-0.75 0.07,-1.5 -0.02,-2.25 Z M 483.88,634.12 c 0.43,-0.01 0.85,-0.02 1.28,-0.02 c -0.44,0.66 -0.87,0.66 -1.28,0.02 Z"/></g>
<g><path fill="#5b5b5b" d="M 450.63,568.98 c -0.13,-0.06 -0.27,-0.12 -0.4,-0.18 c -0.95,-0.08 -1.16,-0.51 -0.63,-1.29 c 0.61,0.29 0.96,0.78 1.03,1.47 Z M 458.21,821.17 c 0.29,0.09 0.49,0.28 0.59,0.58 c -0.22,1.04 -0.46,1.06 -0.71,0.05 c 0.04,-0.21 0.08,-0.42 0.12,-0.63 Z M 415.12,872.66 c -0.2,-0.58 -0.07,-1.06 0.4,-1.43 c 0.73,0.43 0.56,1.81 -0.4,1.43 Z"/></g>
<g><path fill="#aaaaaa" d="M 452.13,786.65 c 0.22,0.07 0.44,0.15 0.66,0.22 c 0.18,1.4 0.29,2.81 0.34,4.22 c -0.3,0.02 -0.6,0.04 -0.9,0.07 c -0.26,-1.5 -0.29,-3 -0.1,-4.51 Z M 413.35,876.78 c 0.18,0.04 0.36,0.09 0.54,0.14 c 0.05,0.75 0.03,1.51 -0.06,2.27 c -0.29,0.04 -0.58,0.08 -0.86,0.11 c 0.05,-0.85 0.18,-1.69 0.38,-2.52 Z"/></g>
<g><path fill="#b1b1b1" d="M 453.17,797.13 c 0.3,0.06 0.6,0.13 0.9,0.19 c 0.82,1.17 1.63,3.34 0.43,4.43 c -0.55,-1.07 -0.99,-2.2 -1.33,-3.38 c -0.08,-0.41 -0.08,-0.83 0,-1.24 Z"/></g>
<g><path fill="#e1e1e1" d="M 432.18,607.78 c 0.21,-0.02 0.41,-0.03 0.61,-0.05 c 0.07,0.52 0.14,1.04 0.21,1.55 c -0.24,0 -0.48,0 -0.72,0 c -0.03,-0.5 -0.06,-1 -0.1,-1.5 Z M 452.93,793.92 c 0.24,-0.01 0.48,-0.02 0.72,-0.03 c 0.3,1.12 0.44,2.27 0.42,3.43 c -0.3,-0.06 -0.6,-0.13 -0.9,-0.19 c -0.16,-1.07 -0.24,-2.14 -0.24,-3.21 Z M 490.77,871.68 c 0.63,0.34 1.03,0.86 1.21,1.55 c -0.28,-0.02 -0.55,-0.04 -0.83,-0.06 c -0.13,-0.5 -0.25,-1 -0.38,-1.49 Z"/></g>
<g><path fill="#b7b7b7" d="M 353.87,638.91 c -0.17,0.62 -0.56,1.03 -1.16,1.25 c -0.15,-0.09 -0.3,-0.19 -0.45,-0.28 c -0.36,-0.94 1.03,-1.06 1.61,-0.97 Z M 464.11,819.19 c -0.25,0.07 -0.5,0.13 -0.74,0.19 c -0.32,-0.79 -0.26,-1.53 0.17,-2.23 c 0.49,0.58 0.67,1.26 0.57,2.04 Z"/></g>
<g><path fill="#ececec" d="M 272.07,694.8 c 0.36,0.03 0.72,0.07 1.08,0.1 c -0.39,1.06 -1.1,1.83 -2.14,2.33 c -0.25,-0.14 -0.51,-0.28 -0.77,-0.41 c 0.19,-1 0.8,-1.67 1.83,-2.02 Z"/></g>
<g><path fill="#dfdfdf" d="M 488.24,540.14 c 0.25,-0.08 0.49,-0.16 0.73,-0.24 c -0.02,0.27 -0.05,0.53 -0.1,0.77 c -0.21,-0.18 -0.42,-0.35 -0.63,-0.53 Z M 436.76,601.68 c 1.92,0.19 1.89,2.55 0.28,2.54 c -0.4,-0.82 -0.5,-1.66 -0.28,-2.54 Z"/></g>
<g><path fill="#f5f5f5" d="M 350.9,640.32 c 0.45,-0.15 0.9,-0.3 1.36,-0.44 c -0.06,0.29 -0.12,0.58 -0.17,0.87 c -0.41,-0.01 -0.81,-0.02 -1.22,-0.03 c 0.01,-0.13 0.02,-0.27 0.03,-0.4 Z M 409.18,889.73 c 0.37,0.06 0.74,0.12 1.11,0.18 c -0.19,0.78 -0.38,1.56 -0.55,2.34 c -0.28,-0.06 -0.57,-0.12 -0.85,-0.18 c 0.05,-0.79 0.15,-1.57 0.29,-2.34 Z"/></g>
<g><path fill="#868686" d="M 432.79,607.73 c -0.2,0.02 -0.4,0.03 -0.61,0.05 c 0.17,-0.63 0.37,-0.65 0.61,-0.05 Z M 491.15,873.17 c 0.28,0.02 0.55,0.04 0.83,0.06 c 0.46,0.01 0.74,0.24 0.85,0.7 c -0.3,0 -0.59,0.01 -0.89,0.02 c -0.41,-0.11 -0.68,-0.37 -0.79,-0.78 Z"/></g>
<g><path fill="#b3b3b3" d="M 395.21,929.7 c 0.33,0.06 0.65,0.11 0.98,0.16 c -0.15,0.8 -0.34,1.6 -0.57,2.38 c -0.22,-0.03 -0.44,-0.07 -0.66,-0.1 c 0.05,-0.82 0.13,-1.63 0.25,-2.44 Z"/></g>
<g><path fill="#cfcfcf" d="M 396.24,926.91 c 0.17,0.03 0.34,0.05 0.51,0.08 c 0.14,0.73 0.13,1.45 -0.04,2.17 c -0.26,-0.1 -0.53,-0.19 -0.8,-0.29 c 0.08,-0.66 0.19,-1.31 0.33,-1.96 Z"/></g>
<g><path fill="#c6c6c6" d="M 435.99,623 c -0.02,0.34 -0.04,0.68 -0.06,1.02 c 0.09,0.25 0.18,0.51 0.27,0.76 c -0.38,-0.08 -0.76,-0.19 -1.12,-0.34 c 0.07,-0.63 0.37,-1.12 0.91,-1.44 Z"/></g>
<g><path fill="#fafafa" d="M 274.02,693.02 c 0.37,-0.11 0.74,-0.22 1.12,-0.33 c -0.07,0.44 -0.14,0.87 -0.21,1.3 c -0.69,0.06 -1,-0.26 -0.91,-0.97 Z M 529.03,905.95 c 0.28,-0.08 0.56,-0.15 0.84,-0.22 c 0.05,0.46 0.1,0.92 0.14,1.38 c -0.55,-0.19 -0.88,-0.58 -0.98,-1.16 Z"/></g>
<g><path fill="#e9e9e9" d="M 459.75,447.15 c 0.11,0.24 0.22,0.48 0.33,0.73 c -0.35,0.12 -0.7,0.24 -1.04,0.36 c -0.06,-0.6 0.17,-0.96 0.71,-1.09 Z M 491.94,873.95 c 0.3,-0.01 0.59,-0.02 0.89,-0.02 c -0.01,0.37 -0.02,0.74 -0.03,1.12 c -0.19,0.07 -0.38,0.15 -0.57,0.22 c -0.1,-0.44 -0.19,-0.88 -0.29,-1.32 Z"/></g>
<g><path fill="#e2e2e2" d="M 410.19,886.82 c 0.34,0.03 0.68,0.06 1.02,0.09 c -0.15,0.75 -0.3,1.5 -0.45,2.25 c -0.3,-0.08 -0.6,-0.17 -0.89,-0.25 c 0.08,-0.7 0.19,-1.4 0.32,-2.09 Z"/></g>
<g><path fill="#c3c3c3" d="M 432.25,482.84 c 0.18,-0.06 0.37,-0.12 0.55,-0.18 c 0.05,0.85 0.02,1.7 -0.1,2.55 c -0.25,-0.34 -0.49,-0.67 -0.74,-1 c 0.1,-0.46 0.19,-0.92 0.29,-1.37 Z"/></g>
<g><path fill="#efefef" d="M 435.93,624.02 c 0.57,0.09 0.89,0.41 0.96,0.98 c -0.23,-0.07 -0.46,-0.15 -0.69,-0.22 c -0.09,-0.25 -0.18,-0.51 -0.27,-0.76 Z"/></g>
<g><path fill="#bdbdbd" d="M 463.97,819.78 c 0.3,-0.02 0.6,-0.04 0.89,-0.06 c 0.06,0.52 0.11,1.03 0.17,1.55 c -0.27,0.02 -0.54,0.05 -0.81,0.08 c -0.08,-0.53 -0.16,-1.05 -0.25,-1.57 Z"/></g>
<g><path fill="#bababa" d="M 270.24,696.82 c 0.26,0.13 0.52,0.27 0.77,0.41 c -0.28,0.41 -0.67,0.66 -1.18,0.73 c 0.14,-0.38 0.27,-0.76 0.41,-1.14 Z"/></g>
<g><path fill="#6d6d6d" d="M 528.99,905.12 c 0.39,0.07 0.68,0.28 0.88,0.61 c -0.28,0.07 -0.56,0.14 -0.84,0.22 c -0.02,-0.28 -0.03,-0.56 -0.04,-0.83 Z"/></g>
<g><path fill="#e5e5e5" d="M 539.02,679.03 c 0.59,0.19 0.93,0.59 1.02,1.21 c -0.33,-0.08 -0.65,-0.17 -0.97,-0.25 c -0.02,-0.32 -0.04,-0.64 -0.05,-0.96 Z"/></g>
<g><path fill="#7f7f7f" d="M 482.79,651.81 c -0.17,0 -0.34,-0.01 -0.52,-0.01 c 0.17,-0.65 0.34,-0.65 0.52,0.01 Z"/></g>
<g><path fill="#646464" d="M 352.26,639.88 c 0.15,0.09 0.3,0.19 0.45,0.28 c -0.04,0.37 -0.25,0.57 -0.62,0.59 c 0.05,-0.29 0.11,-0.58 0.17,-0.87 Z"/></g>
<g><path fill="#ffffff" d="M 538.71,677.75 c 0.1,0.43 0.2,0.85 0.31,1.28 c -0.35,-0.06 -0.69,-0.11 -1.03,-0.17 c 0.24,-0.36 0.49,-0.73 0.72,-1.11 Z"/></g>
<g><path fill="#050505" stroke="#050505" stroke-width="0.5" d="M 432.21,475.34 c 0.07,0.74 0.63,-0.04 0.7,-0.3 c 1.05,-0.79 2,-1.69 2.83,-2.7 c 5.16,-11.15 26.58,-43.73 37.24,-48.68 c 2.66,-0.08 3.69,1.2 3.07,3.82 c -1.38,1.54 -2.82,3.04 -4.31,4.51 c -0.38,0.71 -0.14,1.05 0.71,1.01 c 3.01,-0.02 6.02,-0.06 9.03,-0.12 c 3.79,-1.54 7.71,-2.62 11.75,-3.23 c 0.4,-0.49 0.39,-1 -0.04,-1.53 c -2.17,-2.83 -11.62,-11.68 -14.69,-12.06 c -1.05,0.49 -2.09,1.02 -3.12,1.58 c -2.37,-0.15 -3.31,-1.38 -2.81,-3.7 c 17.35,-21.61 39.74,-42.01 60.81,-60.13 c 28.43,-23.71 57.85,-45 78.47,-76.43 c 3.68,-2 5.72,1.48 3.66,4.63 c -9.76,17 -27.51,33.8 -42.34,46.64 c -31.67,26.29 -63.06,50.47 -90.51,81.52 c -0.16,0.53 0,0.95 0.49,1.26 c 6.79,4.43 11.88,9.64 17.26,15.61 c 1.49,0.99 4,0.06 5.4,-0.63 c -2.31,-1.7 -7.47,-4.24 -3.23,-7.29 c 2.99,-1.24 9.14,4.66 12.04,5.77 c 6.67,1.8 27.67,-18.25 35.85,-15.89 c 8.3,4.84 -19.72,12.53 -20.35,16.55 c 0.15,2.04 -0.46,3.82 -1.84,5.34 c -1.84,0.76 -3.7,1.47 -5.59,2.15 c 1.39,2.56 2.68,5.2 3.86,7.92 c 4.32,12.2 1.16,27.06 -0.5,39.53 c 0.14,1.03 -0.66,3.65 0.45,4.23 c 6.46,-6.75 12.95,-13.48 19.46,-20.21 c 4.44,-6.61 8.74,-13.31 12.91,-20.11 c 2.12,-3.02 9.2,-16.07 12.98,-10.81 c 1.5,2.94 -7.6,12.56 -8.91,15.58 c -0.32,0.1 -0.57,0.3 -0.73,0.61 c 0.02,1.02 0.16,1.05 0.44,0.11 c 2.92,-0.25 5.38,0.92 3.93,4.25 c -5.56,5.06 -11.06,10.19 -16.51,15.38 c -8.67,12.5 -16.91,24.45 -27.55,35.41 c -3.64,16.71 -8.5,33.06 -15.35,48.78 c -1.9,2.29 -5.03,0.84 -4.95,-2.07 c 3.02,-7.79 5.82,-15.66 8.42,-23.6 c 1.22,-4.29 2.54,-8.55 3.94,-12.77 c 0.19,-0.66 0.19,-1.3 -0.02,-1.93 c -1.54,2.02 -3.06,4.07 -4.57,6.15 c -8.03,16.05 -19.89,30.27 -25.81,47.23 c -1.69,2.04 -4.37,1.12 -4.97,-1.32 c 0.03,-0.99 0.2,-1.96 0.51,-2.9 c -0.28,-0.94 -0.47,-1.9 -0.55,-2.87 c 3.92,-6.05 6.57,-12.48 9.7,-18.96 c 0.05,-0.24 0.08,-0.5 0.1,-0.77 c 0.72,-0.32 0.86,-0.79 0.41,-1.41 c -0.79,0.26 -1.17,0.81 -1.14,1.65 c -6.23,4.21 -17.69,14.41 -24.17,19.62 c -2.81,2.05 -5.67,4 -8.57,5.82 c 4.37,4.89 12.14,12.12 14.99,17.41 c 2.62,3.33 5.34,6.56 8.17,9.68 c 10.14,1.74 20.36,2.76 30.65,3.05 c 1.99,-1.24 -5.12,-5.98 -1.57,-9.5 c 5.57,-2.31 6.71,9.1 10.98,10.22 c 35.42,3.63 68.38,9.94 102.34,20.88 c 42.08,14.02 84.17,28 126.27,41.94 c 4.21,0.78 3.88,6.01 -0.82,4.72 c -40.16,-13.18 -80.32,-26.39 -120.47,-39.62 c -32.58,-10.69 -64.49,-17.57 -98.54,-21.19 c -1.06,0.11 -4.59,-1.01 -4.99,0.37 c 33.73,50.98 73.7,94.63 115,139.37 c 2.71,3.43 -1.34,6.25 -4.09,3.13 c -42.86,-45.92 -83.98,-90.54 -118.59,-143.31 c -1.95,-1.74 -15.23,-1.48 -18.33,-1.91 c -1.53,-0.19 -11.87,-1.43 -12.14,-1.19 c 0.19,0.87 0.58,1.66 1.15,2.34 c 29,37.65 58.33,75.48 90.57,110.45 c 2.74,2.93 5.66,5.67 8.77,8.21 c 23.19,19.79 46.39,39.57 69.6,59.34 c 2.44,2.77 -0.46,5.88 -3.54,3.54 c -14.28,-12.09 -28.55,-24.18 -42.83,-36.28 c -1.79,-0.7 -3.64,0.79 -5.13,-0.76 c -9.97,-9.33 -19.77,-18.84 -29.41,-28.51 c -28.74,-24.93 -57.83,-50.32 -82.71,-79.21 c -2.1,-1.75 -4.14,4.31 -3.9,5.75 c 2.21,7.1 4.07,14.24 5.58,21.43 c 0.13,-0.13 0.27,-0.27 0.41,-0.41 c 0.17,-1.94 0.87,-6.47 2.13,-7.88 c 2.38,-1.27 3.92,-0.61 4.61,1.99 c -1.36,8.7 -2.75,17.39 -4.17,26.08 c 2.56,22.68 -5.61,42.85 -10.97,64.41 c -0.83,1.48 -2.05,1.95 -3.64,1.41 c -0.49,-0.52 -1.04,-0.84 -1.67,-0.96 c -1.55,5.2 -3.08,10.4 -4.6,15.61 c -1.65,3.26 -6.34,1.62 -5.28,-2.49 c 7.71,-25.55 13.95,-51.16 19.66,-77.18 c 0.07,-10.47 -3.06,-24.56 -6.2,-34.7 c -0.18,-0.66 -0.35,-0.66 -0.52,-0.01 c -11.49,24.21 -22.7,52.39 -27.62,78.7 c 1.48,22.29 8.94,49.13 14.03,71.22 c 1.05,2.03 2.87,0.56 3.83,2.2 c 3.03,6.49 6.3,12.85 9.82,19.07 c 27.74,48.99 60.68,93.33 96.76,136.41 c 11.98,12.68 23.98,25.34 35.99,37.99 c 2.2,3.11 -2.28,3.85 -1.26,5.57 c 9.98,12.32 19.96,24.65 29.93,36.98 c 2.45,3.18 -1.3,6.26 -3.83,3.65 c -21.26,-26.39 -42.57,-52.76 -63.92,-79.08 c -12.96,-13.72 -25.96,-27.39 -39.01,-41.02 c -0.49,-0.59 -1.08,-1.02 -1.79,-1.29 c -0.27,-0.83 -1.83,-5.2 -3.19,-3.74 c 0.52,1.72 1.58,2.96 3.19,3.74 c -0.13,1.41 -1.65,3.22 -0.48,4.47 c 31.27,48.48 62.62,96.9 94.05,145.27 c 2.07,2.88 -0.71,6.19 -3.8,3.57 c -41.35,-62.51 -81.03,-126.95 -123.74,-188.44 c -1.78,-2 -6.56,-11.37 -8.43,-12.02 c 0.01,-0.38 0.02,-0.75 0.03,-1.12 c -0.11,-0.46 -0.39,-0.69 -0.85,-0.7 c -0.18,-0.69 -0.58,-1.21 -1.21,-1.55 c 0.25,-0.66 0.09,-1.18 -0.5,-1.56 c -0.8,0.42 -0.14,1.64 0.5,1.56 c 0.13,0.49 0.25,0.99 0.38,1.49 c 0.11,0.41 0.38,0.67 0.79,0.78 c 0.1,0.44 0.19,0.88 0.29,1.32 c 2.45,4.52 16.08,29.36 16.12,32.26 c -1,2.15 -2.43,2.49 -4.3,1 c -11.03,-21 -22.05,-42 -33.08,-63.01 c -3.19,-4.96 -7.77,-8.99 -11.45,-13.57 c -0.87,-0.99 -1.34,-0.86 -1.41,0.38 c 1.31,2.94 0.49,5.93 2.21,8.73 c 13.08,22.99 26.22,45.93 39.43,68.84 c 2.13,3.49 -1.56,6.33 -4.09,3.06 c -11.94,-20.78 -23.86,-41.59 -35.76,-62.4 c -1.77,-2.57 -4.55,0.27 -4.26,-5.78 c -0.71,-1.06 -1.1,-2.22 -1.18,-3.5 c -0.91,2.98 1.4,4.34 0.9,7.23 c 0.64,2.48 3.3,8.6 1.03,10.48 c -2.01,0.75 -3.34,0.11 -3.99,-1.94 c -1.59,-6.81 -3.17,-13.61 -4.74,-20.42 c -0.12,-0.69 -0.5,-1.15 -1.15,-1.37 c -2.28,6.72 -4.35,13.52 -6.23,20.38 c 5.74,26.22 -4.42,66.29 -12.1,91.9 c -0.31,1.37 -0.57,2.76 -0.76,4.16 c -1.4,33.45 -4.17,66.49 -7.64,99.77 c -0.21,3.97 -5.21,4.27 -5.4,0.17 c 2.93,-27.36 5.08,-54.66 6.5,-82.14 c 0.06,-1.43 -0.07,-2.84 -0.38,-4.23 c -7.6,17.93 -26.54,52.75 -42.45,63.37 c -1.98,1.01 -3.93,2.02 -5.85,3.03 c -1.58,10.37 -3.58,20.24 -3.36,30.82 c -0.19,3.46 -4.18,2.82 -3.73,-0.98 c -0.11,-10.67 2.31,-21.31 3.42,-31.84 c -2.5,-3.39 -4.5,-6.88 -5.83,-10.92 c -0.21,-0.4 -0.52,-0.52 -0.94,-0.37 c -9.25,18.79 -18.39,37.65 -27.42,56.58 c -1.26,2.34 -4.93,1.99 -4.7,-1.45 c 10.09,-21.35 20.2,-42.69 30.33,-64.02 c -0.27,-48.99 17.18,-99.44 46.01,-139 c 4.19,-3.49 10.33,-6.95 12.98,-12 c 5.17,-18.14 9.41,-36.49 12.75,-55.05 c 0.19,-0.84 0.18,-1.67 -0.05,-2.49 c -30.48,-54.88 -44.5,-118.9 -18.85,-178.62 c 1.42,-2.43 3.79,-10.21 7.57,-9.12 c 1.65,0.94 2.15,2.33 1.48,4.16 c -6.95,13.29 -11.56,27.34 -13.83,42.15 c 0,0.43 0.18,0.74 0.54,0.91 c 5.73,-2.26 4.41,6.87 5.3,10.07 c 1.26,21.8 2.16,41.02 9.31,61.96 c 2.54,7.86 5.32,15.61 8.33,23.26 c 0.64,-3.22 -0.54,-9.61 -0.82,-13.18 c -8.24,-39.39 -5.04,-79.08 -5.68,-119.04 c -0.49,-3.41 1.31,-12.26 0.61,-14.83 c -0.52,-1.43 -1.51,-1.93 -2.97,-1.52 c -14.31,5.52 -26.03,10.15 -38.67,19.14 c -41.7,28.16 -85.92,52.93 -123.58,86.6 c -2.98,0.78 -4.07,-0.31 -3.27,-3.28 c 4.19,-3.94 8.42,-7.82 12.7,-11.65 c 0.51,-0.07 0.9,-0.32 1.18,-0.73 c 1.04,-0.5 1.75,-1.27 2.14,-2.33 c 0.81,0.08 1.4,-0.22 1.78,-0.91 c 1.84,-1.02 3.54,-2.25 5.1,-3.69 c 22.3,-17.9 46.38,-32.9 70.32,-48.45 c 0.34,-0.31 0.51,-0.68 0.52,-1.13 c 0.41,0.01 0.81,0.02 1.22,0.03 c 0.37,-0.02 0.58,-0.22 0.62,-0.59 c 0.6,-0.22 0.99,-0.63 1.16,-1.25 c 0.46,-0.06 0.92,-0.12 1.39,-0.19 c 1.02,-0.25 1.7,-0.87 2.01,-1.86 c 0.63,0.16 1.15,0 1.56,-0.5 c -0.46,-0.85 -1.99,-0.37 -1.56,0.5 c -0.7,0.08 -2.14,0.19 -2.1,1.19 c -0.66,-0.02 -1.09,0.26 -1.3,0.86 c -0.58,-0.09 -1.97,0.03 -1.61,0.97 c -0.46,0.14 -0.91,0.29 -1.36,0.44 c -4.62,2.31 -9.12,4.82 -13.52,7.54 c -9.66,6.35 -19.32,12.72 -28.97,19.08 c -9.72,6.86 -19.22,14.01 -28.5,21.45 c -0.53,0.49 -0.92,1.07 -1.16,1.75 c -1.44,-0.16 -3.27,1.21 -3.61,2.55 c -0.38,0.11 -0.75,0.22 -1.12,0.33 c -0.77,0.48 -1.42,1.07 -1.95,1.78 c -1.03,0.35 -1.64,1.02 -1.83,2.02 c -0.41,0.03 -0.82,0.07 -1.24,0.11 c -7.46,5.75 -14.92,11.52 -22.37,17.29 c -9.21,7.47 -13.94,11.45 -18.37,22.59 c -1.21,0.72 -3.32,0.42 -3.33,-1.31 c 0.63,-9.55 9.19,-17.27 16.12,-22.97 c 28.59,-22.04 55.42,-45.36 86.15,-64.56 c 27.8,-19.07 60.98,-31.14 90.2,-48.13 c 0.64,-0.22 0.96,-0.66 0.96,-1.31 c -4.5,-6.72 -8.88,-13.53 -13.12,-20.45 c -0.31,-0.49 -0.73,-0.61 -1.27,-0.36 c -26.67,22.36 -53.73,43.46 -77.03,69.38 c -2.14,-0.13 -4.49,-1.71 -3.56,-4.13 c 21.88,-25.12 48.36,-45.73 73.68,-67.23 c 0.88,-1.21 5.45,-3.56 4.33,-5.44 c -7.23,-17.75 -15.02,-37.38 -10.4,-56.8 c -5.22,-34.58 6.98,-58.58 35.25,-77.71 c 0.64,-0.55 1.03,-1.24 1.18,-2.06 c 1.37,-56.93 7.75,-115.14 21.23,-170.46 c 1.42,-3.43 6.2,-2.78 5.56,1.22 c -2.2,11.04 -4.52,22.06 -6.95,33.05 c -7.52,43.67 -12.94,86.63 -14.15,130.97 c -0.06,0.54 0.12,0.98 0.53,1.31 c 1.22,-0.37 2.43,-0.79 3.64,-1.23 c 3.32,-0.13 4.37,1.35 3.17,4.42 c -2.4,1.51 -4.62,3.24 -6.67,5.21 c -1.6,1.49 -1.57,32.83 -1.57,37.12 Z M 460.31,425 c 16.86,-60.45 46.04,-112.33 85.04,-161.13 c 2.74,-2.36 6.06,0.13 4.33,3.47 c -14.72,18.94 -27.6,38.35 -40.41,58.62 c -19.44,30.09 -33.23,66.01 -43.9,100.08 c -1.65,2.59 -4.4,1.83 -5.06,-1.04 Z M 510.81,438.99 c 3.62,3.75 7.33,7.3 9.69,12.03 c 0.77,1.85 1.43,3.73 1.99,5.63 c 0.92,-6.66 -1.15,-14.86 -5.47,-20.16 c -1.48,-1.1 -5.46,1.01 -6.21,2.5 Z M 431.36,490.03 c 0.56,-1.58 1.01,-3.19 1.34,-4.82 c 0.12,-0.85 0.15,-1.7 0.1,-2.55 c -0.24,-0.49 -0.42,-0.43 -0.55,0.18 c -0.1,0.45 -0.19,0.91 -0.29,1.37 c -0.54,1.51 -1.14,3.03 -1.79,4.56 c -1.5,-0.06 -2.91,-0.46 -4.21,-1.19 c -9.78,6.8 -24.42,14.28 -28.67,26.09 c 1.67,14.23 7.99,27.37 14.36,40.06 c 0.91,2.03 1.98,3.95 3.22,5.77 c 0.85,-0.01 1.55,-0.34 2.12,-0.99 c 4.46,-3.87 8.84,-7.83 13.15,-11.86 c 0.45,-1.57 0.86,-3.17 1.24,-4.78 c 1.25,-0.71 2.6,-0.98 4.07,-0.82 c 2.3,-1.19 3.61,-3.98 6.45,-1.38 c 1.74,3.16 -1.97,4.96 -3.42,7.21 c -0.94,1.58 1.99,1.59 2.7,2.48 c 3.35,3.94 6.78,7.83 10.28,11.65 c 0.43,0.55 0.97,0.71 1.61,0.5 c 2.06,-2.99 6.68,-4.9 9.37,-7.56 c 12.52,-11.04 30.18,-23.75 40.33,-36.58 c 18.47,-25.86 22.52,-44.62 3.93,-72.4 c -0.72,-1.66 -1.79,-1.98 -3.21,-0.96 c -11.52,9.59 -20.65,16.62 -27.45,30.44 c -3.18,6.37 -6.12,12.84 -8.83,19.41 c -2.51,2.48 -5.81,0.15 -5.11,-2.92 c 0.88,-0.4 1.05,-1 0.5,-1.81 c -0.51,0.5 -0.68,1.1 -0.5,1.81 c -1.63,0.46 -7.92,15.36 -8.65,17.77 c -1.15,2.31 -0.74,8.75 -4.03,9.14 c -7.41,-0.08 0.82,-16.35 2.03,-19.87 c 7.98,-16.27 16.58,-29.73 29.57,-42.46 c 3.89,-5.61 8.44,-10.59 13.64,-14.97 c -1.8,-1.13 -8.76,-1.24 -11.13,-1.29 c -12.43,2.44 -33.43,27.05 -42.25,36.67 c -6.73,18.83 -5.74,33.92 0.59,52.6 c 0.39,3.1 -3.47,4.82 -5.41,1.78 c -4.74,-13.59 -7.08,-25.78 -5.1,-40.28 Z M 459.75,447.15 c -0.54,0.13 -0.77,0.49 -0.71,1.09 c -0.66,-0.03 -0.99,0.29 -1,0.96 c -1.23,0.22 -1.96,0.95 -2.19,2.21 c 1.1,0.53 2.91,-1.34 2.92,-2.5 c 0.56,-0.19 0.99,-0.54 1.31,-1.03 c 2.74,-2.64 5.6,-5.14 8.58,-7.51 c -1.26,-0.51 -2.55,-0.53 -3.86,-0.05 c -2.02,2.03 -3.7,4.31 -5.05,6.83 Z M 396.06,500 c -0.05,1.27 0.09,2.5 0.4,3.69 c 6.43,-8.74 20.65,-16.56 29.36,-23.42 c 1.65,-6.85 0.88,-27.52 1.26,-35.82 c -0.19,-1.2 -0.75,-1.39 -1.66,-0.57 c -20.45,16.11 -29.39,29.44 -29.36,56.12 Z M 395.14,531.05 c 0.12,1.15 0.15,2.3 0.1,3.46 c 1.06,4.04 8.81,32.55 11.31,32.97 c 1.3,-1.24 4.31,-2.53 3.12,-4.78 c -5.29,-10.54 -10.61,-20.68 -14.53,-31.65 Z M 418.03,566 c 3.35,7.06 6.81,14.07 10.39,21.03 c 1.5,2.84 2.2,6.86 6.15,3.98 c 3.06,-2.91 9.89,-4.84 14.19,-6.6 c 1.34,-0.52 1.69,-1.43 1.03,-2.73 c -4.94,-9.89 -10.19,-19.61 -15.76,-29.16 c -0.61,-0.3 -1.18,-0.22 -1.69,0.25 c -2.9,3.23 -12.38,10.44 -14.31,13.23 Z M 450.23,568.8 c 0.61,1.32 4.94,15.4 9.28,11.33 c 0.57,-1.67 -7.92,-9.32 -8.88,-11.15 c -0.07,-0.69 -0.42,-1.18 -1.03,-1.47 c -0.53,0.78 -0.32,1.21 0.63,1.29 Z M 409.16,574 c 1.35,2.81 12.64,21.22 14.43,21.92 c 1.65,0.32 2.32,-0.33 2.02,-1.94 c -4.03,-7.7 -7.99,-15.43 -11.87,-23.2 c -1.22,-1.34 -4.65,2.05 -4.58,3.22 Z M 459.77,586.93 c 0.3,1.46 0.97,2.72 2,3.78 c 1.11,0.18 7.22,1.6 7.78,0.71 c -2.96,-3.72 -4.56,-8.73 -9.78,-4.49 Z M 450,674 c -0.17,13.18 1.17,26.56 2.47,39.62 c 1.78,-6.35 3.7,-12.67 5.76,-18.96 c 6.18,-17.99 13.62,-35.01 21.62,-52.17 c -2.36,-8.52 -4.79,-17.02 -7.31,-25.51 c -4.96,-6.39 -9.68,-12.95 -14.15,-19.66 c -0.39,0.04 -0.66,0.25 -0.79,0.63 c -1.12,6.62 -6.38,33.42 -4.09,38.06 c 4.12,8.93 9.37,16.05 15.15,23.93 c 2.14,3.09 -0.92,5.96 -3.67,3.54 c -3.33,-3.95 -4.6,-8.02 -9.19,-10.75 c -1.35,-2.56 -2.8,-5.07 -4.34,-7.51 c -0.66,0.72 -1.11,10.4 -1.33,12.28 c -0.1,5.5 -0.14,11 -0.13,16.5 Z M 534.97,676.31 c 0.86,1.03 1.86,1.88 3.02,2.55 c 0.22,0.51 0.58,0.88 1.08,1.13 c 0.22,0.44 0.55,0.75 1.01,0.92 c 0.07,0.38 0.23,0.7 0.49,0.98 c 1.13,1.21 2.38,2.27 3.75,3.16 c 1.04,-0.78 -2.21,-4.26 -3.36,-3.75 c -0.04,-0.6 -0.34,-0.96 -0.92,-1.06 c -0.09,-0.62 -0.43,-1.02 -1.02,-1.21 c -0.11,-0.43 -0.21,-0.85 -0.31,-1.28 c -0.78,-0.93 -1.57,-1.85 -2.36,-2.78 c -20.29,-24.42 -40.06,-49.25 -59.33,-74.48 c -0.97,-1.1 -2.16,-1.87 -3.56,-2.31 c -2.27,-0.37 -4.55,-0.64 -6.84,-0.83 c -1.26,0.99 2.49,5.2 3.27,6.09 c 1.1,1.01 2.29,-3.18 5.35,-0.32 c 1.08,3.71 2.14,7.44 3.16,11.19 c 3.01,4.14 6.2,8.13 9.57,11.98 c 1.14,0.83 2.04,-1.45 3.54,-1.23 c 4,0.35 2.59,3.96 1.63,6.47 c -0.02,0.79 0.25,1.48 0.81,2.06 c 12.9,14.99 26.57,29.23 41.02,42.72 Z M 444.27,601 c 0.32,6.25 0.74,12.48 1.26,18.7 c 0.86,-6.72 1.67,-13.46 2.42,-20.22 c 0.02,-2.28 -4.06,-0.61 -3.68,1.52 Z M 436.76,601.68 c -0.22,0.88 -0.12,1.72 0.28,2.54 c 0.35,0.96 0.86,1.82 1.54,2.57 c 0.67,-0.99 1.12,-7.6 -1.82,-5.11 Z M 432.18,607.78 c 0.04,0.5 0.07,1 0.1,1.5 c 0.26,0.69 0.73,1.2 1.39,1.53 c 0.95,-0.4 0.06,-1.83 -0.67,-1.53 c -0.07,-0.51 -0.14,-1.03 -0.21,-1.55 c -0.24,-0.6 -0.44,-0.58 -0.61,0.05 Z M 435.08,624.44 c 0.36,0.15 0.74,0.26 1.12,0.34 c 1.46,7.7 -1.78,35.12 -2.09,44.72 c -0.26,14 -0.22,28 0.13,42 c 0.46,18.54 2.52,34.36 7.29,52.21 c 0.84,-4.05 1.59,-8.12 2.27,-12.21 c -1.66,-21.82 -1.33,-43.16 -0.85,-65 c -1.42,-18.97 -2.5,-37.96 -3.24,-56.97 c -0.33,-1.89 -1.28,-3.4 -2.82,-4.53 c -0.07,-0.57 -0.39,-0.89 -0.96,-0.98 c 0.02,-0.34 0.04,-0.68 0.06,-1.02 c -1.34,-2.05 -2.84,-3.96 -4.5,-5.73 c -0.51,1 -0.83,8.06 0.04,8.31 c 0.88,-1.32 2.07,-1.7 3.55,-1.14 Z M 483.68,632.86 c 0.07,0.42 0.13,0.84 0.2,1.26 c 0.41,0.64 0.84,0.64 1.28,-0.02 c 0.65,-0.75 0.65,-1.5 -0.02,-2.25 c -1.18,-1.93 -3.21,-2.65 -2.07,0.61 c 0.11,0.31 0.31,0.44 0.61,0.4 Z M 405.21,687 c 0.62,17.25 1.87,34.26 6.22,51.02 c 5.51,18.34 12.47,36.12 20.89,53.32 c 0.25,0.62 0.67,1.1 1.24,1.43 c 0.48,-3.41 0.99,-6.83 1.53,-10.27 c 1.32,-9.15 -12.17,-28.56 -14.31,-38.84 c -5.11,-13.67 -8.65,-27.72 -10.61,-42.16 c -0.99,-12.17 -1.88,-24.31 -2.67,-36.44 c -0.75,0.69 -1.13,1.56 -1.14,2.6 c -0.47,6.44 -0.86,12.89 -1.15,19.34 Z M 529.03,905.95 c 0.1,0.58 0.43,0.97 0.98,1.16 c 0.09,0.54 0.38,0.91 0.88,1.12 c 0.1,0.26 0.21,0.53 0.32,0.8 c -0.04,1.05 2.15,2.92 2.79,2.52 c -0.19,-1.23 -0.87,-1.98 -2.04,-2.28 c -0.1,-0.62 -0.46,-0.96 -1.07,-1.04 c -0.01,-0.6 -0.3,-0.97 -0.88,-1.12 c -0.04,-0.46 -0.09,-0.92 -0.14,-1.38 c -0.2,-0.33 -0.49,-0.54 -0.88,-0.61 c -18.62,-25.15 -35.72,-51.3 -51.29,-78.45 c -3.4,-5.73 -6.46,-11.65 -9.16,-17.74 c -0.98,-0.26 -1.95,-0.55 -2.91,-0.88 c -0.43,-0.25 -0.75,-0.61 -0.96,-1.06 c -3.17,-12.97 -6.25,-25.9 -9.24,-38.78 c -0.08,1.7 -0.1,3.41 -0.09,5.13 c 2.04,11.89 4.16,23.79 6.35,35.69 c 0.1,0.39 0.35,0.57 0.75,0.53 c 2.18,-1 3.82,-0.43 4.93,1.7 c 3.91,8.16 10.81,28.44 16.51,34.32 c 10.79,23.12 26.52,40.91 43.51,59.53 c 0.42,0.54 0.96,0.82 1.64,0.84 Z M 445.14,775.12 c -1.57,-0.09 -1.57,3.97 -0.37,3.69 c 0.15,1.16 0.32,2.31 0.49,3.47 c 0.04,0.84 0.21,1.66 0.51,2.46 c 0.65,1.58 1.08,1.52 1.3,-0.18 c 0.01,-0.96 -0.28,-1.79 -0.87,-2.5 c -0.14,-2.4 -0.29,-4.81 -0.45,-7.21 c 0.3,-0.67 0.22,-1.26 -0.25,-1.78 c -0.49,0.6 -0.61,1.28 -0.36,2.05 Z M 452.13,786.65 c -0.19,1.51 -0.16,3.01 0.1,4.51 c -0.35,1.1 -0.12,2.02 0.7,2.76 c 0,1.07 0.08,2.14 0.24,3.21 c -0.08,0.41 -0.08,0.83 0,1.24 c 0.34,1.18 0.78,2.31 1.33,3.38 c 1.2,-1.09 0.39,-3.26 -0.43,-4.43 c 0.02,-1.16 -0.12,-2.31 -0.42,-3.43 c 0.37,-1.06 0.2,-1.99 -0.52,-2.8 c -0.05,-1.41 -0.16,-2.82 -0.34,-4.22 c -0.63,-2.41 -0.93,-4.87 -0.89,-7.38 c -0.79,-1.24 -0.89,0.46 -0.93,0.95 c 0.13,1.91 -0.6,4.88 1.16,6.21 Z M 438.18,799.83 c -0.17,1.59 0.2,3.05 1.1,4.38 c 0.3,0.89 0.72,1.71 1.24,2.47 c 0.61,-0.42 0.75,-2.84 -0.27,-2.61 c 0.03,-1.44 -0.13,-2.87 -0.48,-4.28 c 0.38,-2.89 -2.42,-3.52 -1.59,0.04 Z M 427.07,850.98 c 0.12,0.72 0.53,0.93 1.22,0.62 c 2.42,-1.4 4.95,-2.49 7.59,-3.25 c 2.46,-8.06 5.09,-16.07 7.9,-24.01 c 0.54,-2.53 -3.31,-7.66 -4.83,-9.71 c -0.64,-0.23 -2.15,-1.68 -2.81,-0.91 c -1.63,2.05 -7.56,31.83 -9.07,37.26 Z M 456.81,819.84 c -0.04,0.79 0.07,2.32 1.28,1.96 c 0.25,1.01 0.49,0.99 0.71,-0.05 c -0.1,-0.3 -0.3,-0.49 -0.59,-0.58 c -0.18,-0.5 -0.35,-1 -0.52,-1.5 c -0.16,-0.94 -0.6,-1.73 -1.31,-2.36 c -0.64,0.52 -0.58,2.61 0.43,2.53 Z M 463.37,819.38 c 0.12,0.26 0.32,0.39 0.6,0.4 c 0.09,0.52 0.17,1.04 0.25,1.57 c 0.59,0.75 0.62,2.88 1.92,2.54 c -0.17,0.74 0.01,1.37 0.53,1.9 c 0.52,-0.81 0.34,-1.44 -0.53,-1.9 c -0.02,-0.76 -0.06,-2.59 -1.11,-2.62 c -0.06,-0.52 -0.11,-1.03 -0.17,-1.55 c -0.09,-0.4 -0.34,-0.57 -0.75,-0.53 c 0.1,-0.78 -0.08,-1.46 -0.57,-2.04 c -0.43,0.7 -0.49,1.44 -0.17,2.23 Z M 373.21,1025.77 c 18.15,-9.66 39.68,-54.41 47.42,-73.74 c 2.61,-8.76 2.48,-24.82 3.57,-34.53 c 2.06,-20.34 4.64,-41.17 9.52,-61.05 c 1.35,-3.9 -9.56,5.34 -9.83,7.01 c -9.47,37.17 -22.97,72.14 -39.12,106.88 c -4.92,18.26 -8.77,36.74 -11.56,55.43 Z M 415.12,872.66 c -1.45,0.34 -1.17,2.95 -1.77,4.12 c -0.2,0.83 -0.33,1.67 -0.38,2.52 c -0.3,0.01 -0.5,0.16 -0.58,0.45 c -0.22,0.83 -0.36,1.66 -0.41,2.51 c -0.54,0.38 -0.78,0.89 -0.71,1.54 c -0.17,0.67 -0.31,1.34 -0.43,2.02 c -0.44,0.19 -0.66,0.52 -0.65,1 c -0.13,0.69 -0.24,1.39 -0.32,2.09 c -0.42,0.11 -0.65,0.38 -0.69,0.82 c -0.14,0.77 -0.24,1.55 -0.29,2.34 c -0.34,0.03 -0.59,0.2 -0.74,0.51 c -4.28,11.34 -8.25,22.78 -11.91,34.33 c -0.14,0.65 -0.25,1.3 -0.33,1.96 c -0.43,0.11 -0.66,0.39 -0.7,0.83 c -0.12,0.81 -0.2,1.62 -0.25,2.44 c -0.36,-0.1 -0.61,0.03 -0.74,0.4 c 0.07,1.2 -0.28,2.25 -1.05,3.14 c -0.24,0.74 -0.14,1.42 0.29,2.04 c 1,-1.71 1.72,-3.54 2.16,-5.48 c 0.23,-0.78 0.42,-1.58 0.57,-2.38 c 0.31,-0.12 0.49,-0.35 0.52,-0.7 c 0.17,-0.72 0.18,-1.44 0.04,-2.17 c 0.41,-0.08 0.71,-0.31 0.92,-0.68 c 4.44,-11.21 8.46,-22.56 12.07,-34.06 c 0.17,-0.78 0.36,-1.56 0.55,-2.34 c 0.36,-0.11 0.51,-0.36 0.47,-0.75 c 0.15,-0.75 0.3,-1.5 0.45,-2.25 c 0.34,-0.1 0.53,-0.34 0.58,-0.7 c 0.12,-0.8 0.22,-1.61 0.3,-2.42 c 0.62,-0.37 0.87,-0.93 0.77,-1.68 c 0.12,-0.44 0.25,-0.89 0.37,-1.33 c 0.46,-0.41 0.66,-0.94 0.6,-1.59 c 0.09,-0.76 0.11,-1.52 0.06,-2.27 c 1.65,0.18 1.03,-3.32 1.23,-4.26 c 0.96,0.38 1.13,-1 0.4,-1.43 c -0.47,0.37 -0.6,0.85 -0.4,1.43 Z M 435.33,877.88 c -1.07,7.2 -2.17,14.4 -3.29,21.61 c -0.15,1.86 -0.25,3.73 -0.3,5.6 c -0.29,-0.02 -0.47,0.12 -0.55,0.42 c -0.37,2.93 -0.21,5.22 -1.12,8.06 c 0.14,1.73 0.27,3.44 0.4,5.14 c 1.1,-4.12 1.83,-8.31 2.21,-12.56 c 0.82,-3.87 1.53,-7.76 2.14,-11.66 c 0.72,-4.49 1.22,-9.01 1.48,-13.55 c 1.26,-1.17 0.5,-6.76 0.76,-8.51 c -0.04,-0.53 -0.18,-2.13 -0.98,-0.96 c -0.11,2.17 -0.36,4.3 -0.75,6.41 Z M 405.9,885.2 c 0.69,-0.17 0.87,-0.54 0.56,-1.12 c -0.38,0.27 -0.57,0.64 -0.56,1.12 Z M 364.51,996 c 0.08,0.72 0.37,1.31 0.89,1.78 c 5.72,-11.35 11.23,-22.81 16.52,-34.4 c 6.68,-25.97 14.17,-50.94 23.66,-76.05 c 0.16,-1.41 -0.24,-1.56 -1.19,-0.46 c -4.89,6.29 -11.56,19.26 -17.13,23.92 c -11.68,25.64 -20.95,57.14 -22.75,85.21 Z M 365.75,1011 c 0.55,4.14 1.81,8.05 3.79,11.74 c 2.27,-11.11 3.66,-22.51 6.9,-33.38 c -0.07,-1.02 -0.1,-2.04 -0.09,-3.06 c -1.99,7.39 -9.3,18.28 -10.6,24.7 Z"/></g>
<g><path fill="#8f8f8f" d="M 431.74,905.09 c 0.2,0.46 0.51,0.81 0.94,1.06 c -0.38,4.25 -1.11,8.44 -2.21,12.56 c -0.13,-1.7 -0.26,-3.41 -0.4,-5.14 c 0.91,-2.84 0.75,-5.13 1.12,-8.06 c 0.08,-0.3 0.26,-0.44 0.55,-0.42 Z"/></g>
<g><path fill="#d8d8d8" d="M 435.33,877.88 c 0.76,0.87 1.08,1.89 0.97,3.06 c -0.26,4.54 -0.76,9.06 -1.48,13.55 c -0.61,3.9 -1.32,7.79 -2.14,11.66 c -0.43,-0.25 -0.74,-0.6 -0.94,-1.06 c 0.05,-1.87 0.15,-3.74 0.3,-5.6 c 1.12,-7.21 2.22,-14.41 3.29,-21.61 Z"/></g>
<g><path fill="#6b6b6b" d="M 436.3,880.94 c 0.11,-1.17 -0.21,-2.19 -0.97,-3.06 c 0.39,-2.11 0.64,-4.24 0.75,-6.41 c 0.8,-1.17 0.94,0.43 0.98,0.96 c -0.26,1.75 0.5,7.34 -0.76,8.51 Z"/></g>
<g><path fill="#8c8c8c" d="M 490.77,871.68 c -0.64,0.08 -1.3,-1.14 -0.5,-1.56 c 0.59,0.38 0.75,0.9 0.5,1.56 Z"/></g>
<g><path fill="#5f5f5f" d="M 466.14,823.89 c 0.87,0.46 1.05,1.09 0.53,1.9 c -0.52,-0.53 -0.7,-1.16 -0.53,-1.9 Z"/></g>
<g><path fill="#5c5c5c" d="M 357.27,636.86 c -0.43,-0.87 1.1,-1.35 1.56,-0.5 c -0.41,0.5 -0.93,0.66 -1.56,0.5 Z"/></g>
<g><path fill="#9f9f9f" d="M 405.9,885.2 c -0.01,-0.48 0.18,-0.85 0.56,-1.12 c 0.31,0.58 0.13,0.95 -0.56,1.12 Z M 409.87,888.91 c 0.29,0.08 0.59,0.17 0.89,0.25 c 0.04,0.39 -0.11,0.64 -0.47,0.75 c -0.37,-0.06 -0.74,-0.12 -1.11,-0.18 c 0.04,-0.44 0.27,-0.71 0.69,-0.82 Z M 530.89,908.23 c 0.61,0.08 0.97,0.42 1.07,1.04 c -0.25,-0.08 -0.5,-0.16 -0.75,-0.24 c -0.11,-0.27 -0.22,-0.54 -0.32,-0.8 Z"/></g>
<g><path fill="#898989" d="M 411.98,882.26 c 0.29,-0.05 0.59,-0.1 0.88,-0.15 c 0.1,0.75 -0.15,1.31 -0.77,1.68 c -0.27,0 -0.54,0 -0.82,0.01 c -0.07,-0.65 0.17,-1.16 0.71,-1.54 Z M 410.84,885.82 c 0.31,0.13 0.63,0.26 0.95,0.39 c -0.05,0.36 -0.24,0.6 -0.58,0.7 c -0.34,-0.03 -0.68,-0.06 -1.02,-0.09 c -0.01,-0.48 0.21,-0.81 0.65,-1 Z"/></g>
<g><path fill="#565656" d="M 452.79,786.87 c -0.22,-0.07 -0.44,-0.15 -0.66,-0.22 c -1.76,-1.33 -1.03,-4.3 -1.16,-6.21 c 0.04,-0.49 0.14,-2.19 0.93,-0.95 c -0.04,2.51 0.26,4.97 0.89,7.38 Z"/></g>
<g><path fill="#505050" d="M 394.96,932.14 c 0.22,0.03 0.44,0.07 0.66,0.1 c -0.44,1.94 -1.16,3.77 -2.16,5.48 c -0.43,-0.62 -0.53,-1.3 -0.29,-2.04 c 0.77,-0.89 1.12,-1.94 1.05,-3.14 c 0.13,-0.37 0.38,-0.5 0.74,-0.4 Z"/></g>
<g><path fill="#585858" d="M 412.97,879.3 c 0.28,-0.03 0.57,-0.07 0.86,-0.11 c 0.06,0.65 -0.14,1.18 -0.6,1.59 c -0.25,-0.36 -0.53,-0.71 -0.84,-1.03 c 0.08,-0.29 0.28,-0.44 0.58,-0.45 Z"/></g>
<g><path fill="#525252" d="M 535.2,922.2 c -1.61,-0.78 -2.67,-2.02 -3.19,-3.74 c 1.36,-1.46 2.92,2.91 3.19,3.74 Z"/></g>
</svg>
