<?xml version="1.0" encoding="UTF-8"?>
<!DOCTYPE svg PUBLIC "-//W3C//DTD SVG 1.1//EN" "http://www.w3.org/Graphics/SVG/1.1/DTD/svg11.dtd">
<svg xmlns="http://www.w3.org/2000/svg" version="1.1" viewBox="100 800 1820 470" xmlns:xlink="http://www.w3.org/1999/xlink"><rect x="100" y="800" width="1820" height="470" rx="36" fill="#0a0a0c"/>
<g><path fill="#fcfcfc" stroke="#fcfcfc" stroke-width="0.5" d="M 140.97,845.89 c 125.68,0.14 251.35,0.25 377.02,0.33 c 0.09,125.54 0.01,251.07 -0.24,376.59 c -51.08,0.19 -102.16,0.25 -153.25,0.2 c -1.17,0.05 -2.33,-0.06 -3.47,-0.32 c -0.06,-0.19 -0.12,-0.38 -0.19,-0.56 c -0.2,-1.18 -0.66,-2.24 -1.38,-3.2 c -10.05,-15.53 -20.09,-31.05 -30.15,-46.58 c -0.25,-0.68 -1.71,-2.5 -0.78,-3.09 c 4.52,4.69 9.03,9.41 13.52,14.18 c 7.35,8.99 14.65,18.01 21.92,27.05 c 0.9,0.93 2.46,0.68 1.85,-0.83 c -4.26,-5.76 -8.6,-9.77 -11.45,-16.52 c -20.16,-20.46 -35.64,-42.46 -49.48,-67.51 c -2.18,-7.03 -4.89,-17.72 -4.8,-25.04 c 1.97,-8.52 4.83,-16.73 8.57,-24.64 c 0.09,-0.4 0.33,-0.66 0.71,-0.78 c 5.43,7.17 -1.02,25.4 -3.28,33.43 c -0.26,1.96 -0.41,3.92 -0.47,5.89 c 1.39,-2.57 3.01,-4.98 4.87,-7.22 c 3.98,-9.42 3.31,-18.46 4.64,-28.37 c -0.26,-2.53 -0.62,-2.47 -2.48,-3.77 c -0.49,-0.75 -2.57,-5.32 -0.24,-5.01 c 4.74,4.89 9.59,9.7 14.55,14.42 c 10,8.11 18.27,18.08 29.01,25.14 c 4.02,3.29 8,6.62 11.93,10.01 c 0.69,0.48 1.29,0.42 1.81,-0.18 c -0.67,-1.18 -1.56,-2.2 -2.66,-3.06 c -8.28,-7.07 -16.55,-14.14 -24.83,-21.23 c -10.64,-12.05 -20.8,-24.48 -30.48,-37.29 c -2.3,-2.71 3.82,-1.7 4.83,-1.79 c 1.82,0.17 3.45,0.81 4.88,1.92 c 8.41,12.4 17.71,24.1 27.9,35.09 c 4.3,4.77 8.73,9.4 13.29,13.89 c 2.32,0.49 0.58,-1.8 0.04,-2.41 c -13.61,-14.8 -27.03,-29.53 -38.21,-46.32 c -0.23,-0.42 -0.15,-0.76 0.23,-1.03 c 3.52,0.38 7.06,0.76 10.6,1.15 c 22.25,3.95 43.66,12.92 65.22,19.56 c 2.61,0.8 3.16,-1.07 0.84,-1.71 c -20.67,-6.39 -40.69,-14.6 -61.85,-19.26 c -4.12,-1.12 -14.72,-1.47 -17.89,-3.26 c -0.84,-0.82 -1.61,-1.69 -2.31,-2.61 c -1.59,-0.45 -1.38,1.53 -0.78,2.35 c -0.37,1.23 -4.94,0.23 -6.05,0.46 c -5.05,0.13 -8.81,-5.68 -10.92,-9.58 c 0.03,-1.94 6.38,-6.62 8.27,-7.45 c 0.16,0.3 0.31,0.6 0.46,0.9 c -0.72,1.34 -1.35,2.7 -1.91,4.1 c 0.08,0.85 0.04,3.36 1.59,2.48 c 1.78,-3.8 3.79,-7.49 6.03,-11.07 c 0.52,0.66 1.14,1.22 1.86,1.67 c -0.62,1.13 -1.03,2.32 -1.23,3.58 c 1.7,6.8 6.7,-15.09 7.17,-15.55 c 4.52,-5.49 8.05,-11.57 13.36,-16.38 c 1.93,-2.41 2.04,-5.53 3.51,-8.31 c -0.55,-5.1 -8.44,9.94 -9.43,10.57 c -1.89,1.97 -3.79,3.91 -5.71,5.8 c -1.21,-1.53 0.47,-7.07 0.31,-9.22 c -0.23,-5.01 -2.8,-6.89 1.05,-11.07 c 2.14,-1.17 4.24,-2.41 6.29,-3.74 c 0.82,-0.93 0.6,-1.45 -0.66,-1.56 c -3.05,0.97 -5.89,2.37 -8.53,4.2 c -3.17,1.42 -3.76,0.82 -6.55,-0.5 c -2.14,0.16 -0.27,1.78 -1.81,1.8 c -2.95,-2.04 -6.97,-4.07 -3.43,-7.95 c 10.87,-11.69 24.04,-20.44 35.51,-31.47 c 2.45,-2.63 7.3,-7.48 8.35,-10.8 c -0.11,-1.53 -0.72,-1.76 -1.84,-0.67 c -7.7,11.42 -19.94,19.81 -30.22,28.76 c -5.57,5.05 -10.9,10.34 -16.01,15.86 c -0.28,-0.92 -0.87,-1.39 -1.79,-1.41 c 4.9,-13.5 10.78,-24.56 18.94,-36.34 c 2.67,-3.69 5.26,-7.42 7.77,-11.19 c -0.07,-1.38 -0.65,-1.62 -1.74,-0.7 c -13.15,16.2 -23.03,33.92 -28.9,53.95 c -0.75,1.78 -0.18,2.62 1.72,2.54 c -3.49,5.24 -8.15,9.99 -10.96,15.78 c -0.4,-0.02 -0.67,-0.22 -0.82,-0.61 c -0.08,-2.46 -0.09,-4.92 -0.04,-7.38 c 0.33,-1.97 0.88,-3.89 1.64,-5.74 c -3.2,-12.18 2.79,-43.29 5.51,-56.72 c 0.16,-1.01 0.07,-1.98 -0.28,-2.92 c -0.65,-0.24 -1.13,-0.04 -1.45,0.6 c -4.71,18.52 -6.65,39.08 -7.59,58.26 c -2.23,5.45 -12.13,8.69 -12.66,20.46 c 0.05,6.1 -1.12,13.8 0.52,19.6 c 0.7,3.47 4.76,8.96 0.74,11.62 c -6.76,6.26 -21.79,16.58 -25.08,24.86 c -2.2,2.81 -7.34,5.22 -10.19,7.69 c -5.25,5.19 -22.25,15.1 -23.71,21.93 c -0.13,0.61 0.11,0.95 0.72,1.03 c 1.06,-1.54 2.12,-3.08 3.19,-4.63 c 2.17,-2.12 4.51,-4.03 7.01,-5.74 c 0.27,0.62 0.45,1.27 0.57,1.96 c 0.29,0.34 0.61,0.36 0.94,0.06 c 14.64,-12.74 31.49,-22.28 47.63,-32.93 c 1.7,-0.91 4.3,-2.43 6.27,-2.27 c 0.06,0.23 0.13,0.46 0.19,0.69 c -10.06,24.2 -6.3,41.88 4.99,64.65 c 0.67,4.22 -2.57,18.91 -5.51,22.67 c -5.7,4.07 -8.45,10.87 -11.49,16.94 c -3.55,7.98 -5.96,16.28 -7.22,24.9 c -0.08,3.11 -0.26,6.2 -0.54,9.28 c -3.31,7.17 -6.66,14.31 -10.06,21.44 c -0.23,1.3 0.31,1.79 1.62,1.48 c 0.08,0.25 0.15,0.49 0.22,0.74 c -39.05,0.09 -78.09,0.12 -117.13,0.1 c -0.01,-125.71 -0.03,-251.42 -0.05,-377.12 Z M 280.01,1027 c -0.56,-4.33 10.09,-11.81 11.6,-9.34 c -0.95,4.4 0.12,9.46 1.74,13.59 c 1.02,1 1.65,0.78 1.88,-0.68 c -4.11,-15.07 -0.31,-19.32 10.9,-28.73 c 1.55,-1.09 4.95,-3.01 6.5,-1.24 c -2.65,3.46 -5.44,6.8 -8.39,10.03 c -2.17,2.94 -8.19,12.36 -7.18,15.81 c 0.29,0.5 0.7,0.64 1.22,0.43 c 0.73,-1.7 1.45,-3.42 2.15,-5.18 c 6.82,-5.88 7.5,-14.38 15.54,-19.41 c 0.55,-0.53 1.2,-0.73 1.92,-0.58 c 11.67,17.67 -4.2,28.82 -16.71,38.96 c -3.41,2.06 -5.28,-0.41 -6.38,-3.39 c 0.59,-2.16 0.37,-4.02 -2.01,-1.9 c -1.2,1.1 -2.36,2.26 -3.45,3.46 c -1.19,0.34 -2.22,1.84 -3.47,1.58 c -2.93,-4.04 -4.88,-8.51 -5.86,-13.41 Z M 289.84,1002.11 c 0.13,3.93 0.06,7.85 -0.21,11.77 c -2.94,2.04 -5.81,4.17 -8.61,6.4 c -1.09,0.71 -1.6,0.42 -1.54,-0.85 c 0.08,-4.89 4.43,-17.01 10.36,-17.32 Z M 287.66,1044.83 c 0.33,-2.68 2.06,-3.82 4.31,-5.04 c 0.28,-0.25 0.54,-0.24 0.79,0.03 c 1.2,2.58 5.31,7.79 4.18,10.65 c -4.32,5.37 -8.64,-1.42 -9.28,-5.64 Z M 257,1070.78 c 0.16,-0.56 0.46,-1.04 0.89,-1.43 c 7.52,-7.17 15.36,-13.97 23.52,-20.4 c 0.29,-0.23 0.62,-0.38 0.98,-0.45 c 1.77,2.61 6.25,5.48 2.13,8.44 c -6.86,3.47 -13.73,6.93 -20.6,10.39 c -2.05,0.94 -3.96,2.1 -5.73,3.48 c -0.4,0.14 -0.8,0.13 -1.19,-0.03 Z M 299.25,1066.99 c 0.36,-3.52 0.94,-7 1.72,-10.44 c 0.37,-0.31 0.73,-0.29 1.06,0.07 c 3.53,4.17 6.75,10.09 5.74,15.71 c -3.29,4.93 -1.73,5.02 -5.95,0.31 c -1.23,-1.72 -2.09,-3.6 -2.57,-5.65 Z M 294.69,1072.92 c 0.16,4.54 0.5,9.06 1.02,13.57 c -0.5,6.68 -0.41,13.35 0.25,20.02 c 0.04,1.47 -0.09,2.89 -0.41,4.28 c -3.91,-1.7 -2.61,-31.94 -2.23,-36.92 c 0.46,-0.31 0.92,-0.63 1.37,-0.95 Z M 298,1081 c 0.21,-2.04 0.36,-4.09 0.44,-6.14 c 0.64,-2.92 5.56,3.06 5.66,4.54 c -0.01,0.9 -0.18,1.77 -0.51,2.61 c -1.44,3.65 -2.88,7.28 -4.3,10.89 c -0.43,-0.15 -0.64,-0.47 -0.61,-0.96 c -0.26,-3.64 -0.49,-7.29 -0.68,-10.94 Z M 292.71,1121.15 c -0.5,-0.01 -1,-0.01 -1.5,0 c -3,-6.31 -5.35,-12.85 -7.05,-19.61 c -0.45,-2.67 -0.84,-5.35 -1.16,-8.04 c -0.07,-3.82 0,-7.61 0.22,-11.38 c 0.9,1.23 0.37,8.23 0.92,10.23 c 0.54,1.66 0.89,3.37 1.06,5.11 c 1.68,6.8 4.09,13.32 7.25,19.57 c 0.39,1.36 0.48,2.73 0.26,4.12 Z M 290.2,1143.8 c 1.12,-4.19 2.25,-8.36 3.41,-12.49 c 3.89,1.82 0.82,11.74 -3.41,12.49 Z M 271.74,1203 c 0.57,-3.71 1.29,-7.39 2.18,-11.04 c 0.43,-2.09 0.92,-4.17 1.49,-6.23 c 5.44,-11.53 9.82,-23.44 13.17,-35.73 c 0.6,-1.41 1.31,-3.17 2.86,-3.71 c 0.35,0.31 0.49,0.71 0.44,1.19 c -1.66,7.92 -2.67,15.93 -3.04,24.02 c -0.26,2.63 -0.67,5.24 -1.21,7.82 c -3.06,8.34 -8.23,17.98 -14.61,24.21 c -0.39,0.35 -0.83,0.48 -1.34,0.41 c -0.25,-0.33 -0.23,-0.64 0.06,-0.94 Z M 281.79,1157.89 c -0.27,0.99 -0.49,1.99 -0.65,3.01 c -1.11,2.52 -2.08,5.1 -2.91,7.74 c -1.33,4.5 -2.57,9.02 -3.72,13.56 c -1.23,2.94 -2.6,5.81 -4.12,8.61 c -0.09,0.42 -0.1,0.83 -0.02,1.25 c -0.63,0.78 -1.32,1.49 -2.09,2.13 c 0.07,-1.42 0.28,-2.82 0.62,-4.21 c 0.27,-1.41 0.44,-2.83 0.5,-4.26 c 0.63,-2.69 1.3,-5.36 2.02,-8.03 c 1.39,-4.27 2.98,-8.46 4.78,-12.58 c 1.62,-1.96 3.01,-4.07 4.17,-6.34 c 0.32,-0.54 0.8,-0.84 1.42,-0.88 Z"/></g>
<g><path fill="#fbfbfb" stroke="#fbfbfb" stroke-width="0.5" d="M 286.14,1060.81 c -0.06,-0.23 -0.13,-0.46 -0.19,-0.69 c 0.85,-0.85 1.87,-1.35 3.06,-1.5 c 0.97,1.81 0.47,2.41 -1.48,1.77 c -0.46,0.14 -0.93,0.28 -1.39,0.42 Z M 290.17,1101.92 c -0.41,0.05 -0.81,0.09 -1.22,0.13 c -2.55,-6.49 -2.93,-13.61 -3.18,-20.52 c -1.29,-5.12 -2.3,-7.32 -0.33,-12.55 c 0.8,-2.41 1.84,-4.7 3.11,-6.87 c 0.6,0.66 0.86,1.45 0.77,2.38 c -0.32,12.61 -0.01,24.97 0.85,37.43 Z M 297.76,1140.71 c 0.15,0.98 0.72,6.43 2.43,5.83 c 0.33,-0.85 0.73,-1.64 1.2,-2.38 c 0.44,0.22 0.86,0.46 1.26,0.72 c 2.86,6.13 7.83,14.55 11.62,20.41 c 0.47,0.52 0.91,0.52 1.34,-0.02 c -0.33,-1.08 -0.51,-2.18 -0.53,-3.3 c 0.92,0.5 1.76,1.13 2.51,1.89 c 1.37,0.2 0.76,-1.21 0.79,-1.96 c 0.54,0.49 1.06,0.48 1.57,-0.03 c 13.11,20.04 26.17,40.11 39.18,60.21 c -0.08,0.21 -0.15,0.42 -0.22,0.64 c -33.58,0.31 -67.17,0.37 -100.76,0.19 c -0.07,-0.25 -0.14,-0.49 -0.22,-0.74 c 2.82,-6.33 5.82,-12.55 9.01,-18.69 c 1.18,-1.16 2.32,3.05 2.8,3.71 c -0.1,-0.01 -0.21,-0.01 -0.31,-0.02 c -0.4,3.09 -0.83,6.19 -1.29,9.3 c -0.1,2.08 1.92,2.16 1.96,0.03 c 0.04,-2.8 0.21,-5.56 0.5,-8.3 c 7.1,-5.93 11.75,-12.93 15.88,-21.28 c 0.91,-1.02 1.38,-0.84 1.4,0.52 c -0.56,8.72 -1.24,17.44 -2.04,26.14 c 0.02,0.86 0.43,1.2 1.22,1.02 c 0.37,-0.66 0.61,-1.37 0.72,-2.12 c 1.18,-11.26 2.19,-22.47 2.61,-33.8 c 3.5,-11.49 5.42,-23.06 4.92,-35.05 c 0.49,-1.28 0.83,-2.6 1.02,-3.95 c 0.62,-1.12 1.62,0.06 1.43,1.03 Z"/></g>
<g><path fill="#ffffff" fill-opacity="0.098" d="M 1574.86,999.14 c 1.76,-0.45 1.79,6.77 -0.08,6.65 c 0.12,-2.22 0.15,-4.43 0.08,-6.65 Z M 1594.12,1105.03 c -0.05,2.98 -0.05,5.96 0,8.94 c -0.43,0.16 -0.76,0.03 -0.97,-0.4 c -0.12,-1.17 -0.98,-8.94 0.97,-8.54 Z M 606.91,1166.89 c 0.2,1.59 0.34,3.18 0.42,4.78 c -1.76,1.36 -1.81,-4.92 -0.42,-4.78 Z M 1718.11,1166.79 c -0.04,1.64 0.02,3.28 0.19,4.91 c -1.87,1.09 -1.9,-4.36 -0.19,-4.91 Z M 607.33,1171.67 c 25.38,0.25 50.77,0.34 76.17,0.25 c 4.21,0.06 8.42,-0.05 12.62,-0.32 c 0.79,0 1.5,0.24 2.11,0.73 c -0.46,0.41 -1.01,0.6 -1.64,0.58 c -29.03,0.09 -58.07,0.13 -87.1,0.1 c -0.71,0.05 -2.99,0.04 -2.16,-1.34 Z M 925.35,1171.91 c 24.78,0.12 49.57,0.12 74.35,0.01 c 0.39,1.24 -1.54,1.09 -2.18,1.1 c -23.35,-0.02 -46.69,-0.02 -70.04,0 c -0.63,-0.01 -2.54,0.1 -2.13,-1.11 Z M 1008.74,1172.08 c 24.95,-0.15 49.9,-0.21 74.85,-0.19 c 0.62,1.25 -1.46,1.16 -2.07,1.13 c -23.34,-0.02 -46.68,-0.02 -70.02,-0.02 c -0.79,-0.12 -2.48,0.14 -2.76,-0.92 Z M 1178.39,1171.9 c 19.62,-0.01 39.24,0.03 58.86,0.13 c -0.78,0.7 -1.69,1.02 -2.74,0.98 c -18.01,-0.01 -36.02,-0.01 -54.03,0.01 c -0.61,0.02 -2.63,0.12 -2.09,-1.12 Z M 1509.28,1171.94 c 25.82,0.08 51.65,0.08 77.47,0.01 c -0.02,0.75 -0.43,1.11 -1.22,1.06 c -24.68,-0.01 -49.36,-0.01 -74.05,0.01 c -0.63,-0.01 -2.6,0.16 -2.2,-1.08 Z M 1718.3,1171.7 c 25.09,0.23 50.19,0.3 75.29,0.19 c 0.59,1.24 -1.46,1.16 -2.07,1.13 c -23.68,-0.02 -47.35,-0.02 -71.03,0 c -0.65,0.05 -3.04,0.01 -2.19,-1.32 Z M 1805.26,1171.93 c 24.17,0.09 48.34,0.09 72.51,0.03 c -0.03,0.75 -0.44,1.1 -1.23,1.05 c -23.02,-0.01 -46.04,-0.01 -69.06,0.01 c -0.66,0 -2.58,0.16 -2.22,-1.09 Z"/></g>
<g><path fill="#ffffff" fill-opacity="0.502" d="M 1311.27,993.03 c -1.29,0.13 -1.51,-1.89 0.26,-1.94 c 5.31,-0.02 10.62,-0.07 15.93,-0.14 c 1.55,-1.02 1.4,-4.21 -0.94,-3.97 c -27.68,0.03 -55.36,0.04 -83.04,0.01 c -0.49,0.36 -0.67,0.85 -0.54,1.46 c -0.1,0.93 0.12,1.75 0.64,2.47 c 3.31,0.12 6.62,0.16 9.93,0.13 c 0.83,0.07 1.31,0.51 1.43,1.32 c -4.05,-0.23 -8.1,-0.46 -12.14,-0.68 c -0.43,-0.25 -0.67,-0.62 -0.72,-1.11 c 0.22,-1.39 -0.97,-4.71 1.37,-4.57 c 27.69,0 55.37,-0.01 83.06,0 c 3.52,-0.67 3.42,4.76 1.79,5.78 c -5.27,0.24 -10.54,0.31 -15.82,0.23 c -0.76,-0.05 -1.17,0.29 -1.21,1.01 Z M 1412.21,993.96 c -1.32,0.2 -1.36,-2.08 -0.5,-2.74 c 4.57,-0.14 9.14,-0.24 13.72,-0.29 c 0.96,-0.85 1.15,-4.31 -0.89,-3.95 c -26.04,0.05 -52.07,0.04 -78.1,-0.05 c -1.65,0.08 -2.24,0.94 -1.77,2.6 c 0.04,0.63 0.33,1.09 0.87,1.4 c 4.31,0.06 8.62,0.15 12.93,0.24 c 1.88,0.07 1.39,1.85 1.17,3.1 c -0.36,-0.75 -0.78,-1.47 -1.24,-2.17 c -4.57,0 -9.14,-0.1 -13.71,-0.31 c -0.47,-0.29 -0.72,-0.72 -0.76,-1.28 c -0.32,-3.22 -0.22,-4.94 3.56,-4.51 c 25.99,0 51.98,0.01 77.97,0.03 c 2.18,0.32 1.85,4.78 0.76,5.67 c -4.24,0.33 -8.49,0.43 -12.75,0.29 c -1.08,0.2 -1.5,0.86 -1.26,1.97 Z M 1490.91,992.42 c 0.26,-0.78 0.8,-1.23 1.61,-1.36 c 4.96,0.02 9.93,-0.03 14.89,-0.14 c 0.53,-0.71 0.72,-1.52 0.57,-2.44 c 0.07,-0.58 -0.12,-1.04 -0.57,-1.38 c -16.93,-0.13 -33.86,-0.12 -50.79,0.03 c -1.03,0.75 -1.09,3.09 -0.06,3.81 c 7.98,0.1 15.96,0.13 23.94,0.11 c 1.85,-0.06 2.06,2.8 0.47,3.24 c 0.45,-1.39 -0.03,-2.16 -1.43,-2.31 c -7.94,0.14 -15.87,0.06 -23.79,-0.25 c -1.18,-0.73 -1.47,-5.62 0.79,-5.64 c 17.29,-0.11 34.59,-0.11 51.88,0 c 0.5,0.32 0.7,0.78 0.61,1.38 c -0.43,1.25 0.39,3.51 -0.66,4.4 c -5.83,0.02 -11.65,0.21 -17.46,0.55 Z M 706.7,1016.99 c 0.65,0.3 0.99,0.81 1.04,1.53 c 0.44,3.67 0.4,7.33 -0.11,10.98 c -0.11,5.35 -0.03,10.69 0.22,16.02 c 0.14,1.08 -0.21,1.91 -1.08,2.5 c 0.33,-10.35 0.31,-20.69 -0.07,-31.03 Z M 1820.64,1050.06 c 0.44,-0.11 0.88,-0.21 1.33,-0.31 c 7.17,0.27 14.36,0.35 21.55,0.25 c 1.91,-0.1 1.84,1.79 0.4,1.79 c -0.3,-0.55 -0.76,-0.81 -1.41,-0.78 c -6.67,0.01 -13.34,0.01 -20.01,-0.01 c -0.76,-0.05 -1.38,-0.37 -1.86,-0.94 Z M 899.21,1080.73 c 0.56,0.44 0.81,1.03 0.76,1.77 c -0.21,3.14 -0.14,6.28 0.2,9.41 c -0.21,18.86 -0.19,37.72 0.06,56.58 c -0.01,0.89 -0.17,1.74 -0.48,2.57 c -0.34,-2.15 -0.58,-4.34 -0.72,-6.56 c 0.06,-19.34 0.01,-38.67 -0.16,-58 c 0.33,-1.91 0.44,-3.83 0.34,-5.77 Z M 811.86,1174.2 c 3.54,0.09 7.09,0.13 10.66,0.12 c 2.75,-0.12 4.9,-0.87 7.64,0.06 c -0.45,0.46 -1.01,0.65 -1.67,0.6 c -5.34,0.08 -10.67,0.02 -16,-0.17 c -0.36,-0.07 -0.57,-0.27 -0.63,-0.61 Z"/></g>
<g><path fill="#f6f6f6" fill-opacity="0.106" d="M 518.88,845.91 c -0.3,0.1 -0.59,0.21 -0.89,0.31 c -125.67,-0.08 -251.34,-0.19 -377.02,-0.33 c 0.19,-0.74 0.68,-1.04 1.48,-0.92 c 125.32,0 250.64,0.04 375.96,0.13 c 0.41,0.13 0.56,0.4 0.47,0.81 Z"/></g>
<g><path fill="#fbfbfb" fill-opacity="0.255" d="M 140.97,845.89 c 0.02,125.7 0.04,251.41 0.05,377.12 c -0.06,0.38 -0.12,0.76 -0.17,1.14 c -1.4,-0.12 -0.64,-3.73 -0.86,-4.65 c 0.01,-123.67 0.01,-247.34 0,-371 c 0.08,-0.7 -0.26,-2.73 0.98,-2.61 Z"/></g>
<g><path fill="#fbfbfb" fill-opacity="0.518" d="M 517.99,846.22 c 0.3,-0.1 0.59,-0.21 0.89,-0.31 c 0.19,126.06 0.16,252.11 -0.1,378.17 c -0.25,-0.07 -0.49,-0.13 -0.74,-0.2 c -0.1,-0.36 -0.19,-0.71 -0.29,-1.07 c 0.25,-125.52 0.33,-251.05 0.24,-376.59 Z"/></g>
<g><path fill="#fbfbfb" fill-opacity="0.776" d="M 141.02,1223.01 c 39.04,0.02 78.08,-0.01 117.13,-0.1 c 33.59,0.18 67.18,0.12 100.76,-0.19 c 0.71,0.12 1.42,0.12 2.12,-0.03 c 1.14,0.26 2.3,0.37 3.47,0.32 c 51.09,0.05 102.17,-0.01 153.25,-0.2 c 0.1,0.36 0.19,0.71 0.29,1.07 c -125.73,0.07 -251.46,0.16 -377.19,0.27 c 0.05,-0.38 0.11,-0.76 0.17,-1.14 Z"/></g>
<g><path fill="#ffffff" fill-opacity="0.035" d="M 1236.98,1167.26 c -3.84,-0.13 -7.68,-0.17 -11.53,-0.12 c -1.03,-0.02 -1.59,-0.55 -1.67,-1.58 c 0.06,-63.92 0,-127.83 -0.18,-191.74 c -0.27,-0.42 -0.65,-0.63 -1.16,-0.63 c -19.98,-0.05 -39.97,-0.1 -59.95,-0.15 c -1.57,0.32 -3.16,0.44 -4.75,0.35 c -0.75,-0.26 -0.82,-0.68 -0.18,-1.26 c 0.6,-0.32 1.24,-0.45 1.92,-0.39 c 20.68,0.02 41.36,0.02 62.04,0 c 1.54,-0.14 2.7,0.47 3.46,1.81 c 0.05,63.67 0.04,127.34 -0.02,191.01 c -0.11,0.6 0.08,1.08 0.57,1.43 c 3.65,-0.08 7.3,-0.04 10.95,0.12 c 0.47,0.25 0.63,0.64 0.5,1.15 Z M 1173.96,1072 c 0.28,3.16 0.42,6.33 0.41,9.5 c -0.01,17.33 -0.01,34.67 0,52 c 0.06,3.46 -0.13,6.91 -0.56,10.35 c -1.02,0.34 -0.96,-1.84 -1.04,-2.36 c 0.17,-17.32 0.28,-34.64 0.31,-51.97 c -0.01,-5.38 -0.13,-10.75 -0.34,-16.12 c -0.07,-0.93 0.34,-1.39 1.22,-1.4 Z"/></g>
<g><path fill="#ffffff" fill-opacity="0.376" d="M 1732.07,977.93 c 0.8,0.64 1.11,1.49 0.95,2.56 c -0.02,61.34 -0.02,122.68 0,184.03 c 0.04,0.74 0.11,2.62 -1.22,2.16 c 0.18,-62.61 0.27,-125.22 0.27,-187.83 c 0,-0.31 0,-0.62 0,-0.92 Z M 1069.35,1077.9 c 0.91,0.21 0.63,1.96 0.73,2.62 c -0.1,28.7 -0.08,57.41 0.08,86.12 c -1.28,0.5 -1.19,-1.44 -1.16,-2.12 c 0.06,-27.67 0.02,-55.34 -0.12,-83.01 c -0.02,-1.23 0.14,-2.43 0.47,-3.61 Z M 1128.71,1174.01 c 3.6,0.19 7.2,0.31 10.82,0.37 c 3.24,-0.36 6.49,-0.47 9.74,-0.31 c -0.09,0.41 -0.34,0.68 -0.75,0.82 c -6.04,0.06 -12.08,0.11 -18.12,0.16 c -0.84,0.06 -1.4,-0.29 -1.69,-1.04 Z"/></g>
<g><path fill="#ffffff" fill-opacity="0.847" d="M 1782.07,1107.32 c -0.1,19.8 -0.1,39.6 -0.01,59.41 c -1.24,0.37 -1.09,-1.56 -1.09,-2.21 c 0.01,-18.69 0.02,-37.37 0.02,-56.06 c -0.04,-0.79 0.32,-1.17 1.08,-1.14 Z M 924.98,1167.97 c 1.62,0.47 -0.09,3.43 2.47,3.08 c 24.25,-0.03 48.49,-0.06 72.73,-0.07 c -0.16,0.31 -0.32,0.63 -0.48,0.94 c -24.78,0.11 -49.57,0.11 -74.35,-0.01 c -0.45,-1.28 -0.57,-2.59 -0.37,-3.94 Z M 1508.73,1170.98 c 26.18,0.03 52.36,0.04 78.54,0.02 c -0.17,0.32 -0.35,0.63 -0.52,0.95 c -25.82,0.07 -51.65,0.07 -77.47,-0.01 c -0.19,-0.32 -0.37,-0.64 -0.55,-0.96 Z M 1804.83,1171 c 24.51,0.01 49.02,0.01 73.53,0 c -0.2,0.32 -0.39,0.64 -0.59,0.96 c -24.17,0.06 -48.34,0.06 -72.51,-0.03 c -0.15,-0.31 -0.29,-0.62 -0.43,-0.93 Z"/></g>
<g><path fill="#ffffff" fill-opacity="0.067" d="M 1157.72,977.69 c 5.07,0.17 10.15,0.32 15.25,0.43 c 0.01,0.23 0.01,0.46 0.02,0.69 c -4.84,0.24 -9.68,0.33 -14.53,0.24 c -0.32,-0.07 -0.63,-0.14 -0.95,-0.21 c -0.65,-0.55 -0.58,-0.93 0.21,-1.15 Z M 851.78,1043.29 c -4.87,-0.2 -9.73,-0.23 -14.59,-0.08 c -0.06,-0.83 0.35,-1.22 1.23,-1.18 c 4.3,-0.3 8.57,-0.19 12.83,0.33 c 0.35,0.21 0.53,0.52 0.53,0.93 Z M 1033.77,1043.28 c -3.23,-0.22 -6.46,-0.23 -9.69,-0.04 c -0.14,-0.46 0.01,-0.81 0.44,-1.03 c 0.97,-0.25 10.87,-1.05 9.25,1.07 Z M 1146.92,1043.24 c -2.62,-0.13 -5.23,-0.15 -7.85,-0.04 c -0.12,-0.43 0.03,-0.74 0.45,-0.94 c 0.95,-0.22 8.29,-1.2 7.4,0.98 Z M 1670.93,1043.23 c -3.62,-0.12 -7.24,-0.14 -10.86,-0.04 c -0.24,-0.46 -0.12,-0.8 0.34,-1.03 c 3.37,-0.36 6.74,-0.35 10.1,0.03 c 0.43,0.24 0.57,0.59 0.42,1.04 Z M 1678.06,1069.18 c -0.78,1.83 -7.57,0.83 -9.34,0.8 c 0.42,-0.61 1,-0.92 1.75,-0.94 c 1.71,0.26 6.37,-0.58 7.59,0.14 Z M 1019.86,1069.96 c 0.26,30.84 0.37,61.69 0.34,92.55 c -0.1,1.35 0.05,3.44 -1.34,4.22 c 0.18,-31.07 0.17,-62.15 -0.04,-93.23 c 0.09,-0.65 -0.24,-3.89 1.04,-3.54 Z M 989.17,1086.96 c 1.35,-0.26 0.68,2.86 0.89,3.55 c -0.22,25.41 -0.2,50.82 0.08,76.22 c -1.38,-0.79 -1.24,-2.87 -1.34,-4.22 c -0.04,-25.19 0.09,-50.37 0.37,-75.55 Z"/></g>
<g><path fill="#ffffff" fill-opacity="0.122" d="M 1782.11,972.94 c 1.12,-0.08 0.73,1.95 0.86,2.56 c -0.03,41.31 0,82.61 0.09,123.91 c 0.92,0.96 1.97,-0.08 3.04,0.74 c -1.7,0.51 -4.5,2.91 -4.18,-0.63 c -0.08,-42.2 -0.01,-84.39 0.19,-126.58 Z M 1676.88,1043.9 c 0.76,-0.7 1.64,-0.93 2.64,-0.7 c 0.46,0.28 0.53,0.64 0.23,1.07 c -0.96,-0.13 -1.92,-0.25 -2.87,-0.37 Z M 1782.07,1107.32 c 0.21,-0.14 0.41,-0.28 0.62,-0.41 c 0.26,0.84 0.36,1.71 0.32,2.59 c -0.01,19.2 -0.05,38.4 -0.11,57.6 c -0.28,-0.12 -0.56,-0.25 -0.84,-0.37 c -0.09,-19.81 -0.09,-39.61 0.01,-59.41 Z"/></g>
<g><path fill="#ffffff" fill-opacity="0.298" d="M 989.22,1045.82 c -0.46,0.09 -0.92,0.18 -1.39,0.28 c -20.83,-0.13 -41.66,-0.14 -62.5,-0.03 c -0.53,-1.24 1.56,-1.08 2.15,-1.08 c 19.68,0.01 39.35,0.01 59.02,0.01 c 0.72,0.13 2.53,-0.23 2.72,0.82 Z M 1573.26,1045.7 c -0.44,0.14 -0.88,0.29 -1.31,0.43 c -21.39,-0.1 -42.78,-0.14 -64.18,-0.14 c 0.25,-0.78 0.81,-1.12 1.67,-1.02 c 21.04,-0.02 42.09,0.04 63.13,0.18 c 0.36,0.05 0.59,0.23 0.69,0.55 Z M 1872.7,1046.06 c -17.12,-0.09 -34.25,-0.09 -51.37,0.01 c -0.53,-1.25 1.56,-1.08 2.15,-1.08 c 15.68,0.01 31.36,0.01 47.04,0 c 0.64,0.01 2.54,-0.14 2.18,1.07 Z"/></g>
<g><path fill="#ffffff" fill-opacity="0.647" d="M 624.27,991.79 c 0.31,0.16 0.51,0.41 0.6,0.76 c 0.13,57.32 0.18,114.64 0.14,171.97 c -0.03,0.75 0.08,2.37 -1.1,2.29 c 0.02,-0.23 0.04,-0.46 0.06,-0.69 c -0.06,-58.12 0.04,-116.23 0.3,-174.33 Z"/></g>
<g><path fill="#ffffff" fill-opacity="0.455" d="M 924.6,1050.08 c 0.48,-0.1 0.95,-0.2 1.43,-0.29 c 0.8,0.31 1.62,0.5 2.48,0.58 c 3.58,-0.15 7.15,-0.13 10.73,0.06 c 0.41,0.25 0.63,0.62 0.67,1.1 c 0.09,37.66 0.13,75.33 0.11,112.99 c 0.01,0.57 0.14,2.65 -1.07,2.09 c 0.04,-38.05 0.07,-76.1 0.08,-114.15 c 0.07,-0.56 -0.13,-0.97 -0.6,-1.23 c -3.64,0.02 -7.28,0.03 -10.92,0.05 c -1.14,0 -2.11,-0.4 -2.91,-1.2 Z"/></g>
<g><path fill="#ffffff" fill-opacity="0.486" d="M 607.07,986.16 c 29.14,-0.17 58.29,-0.23 87.43,-0.15 c 0.57,0.15 2.6,-0.26 2.63,0.72 c -29.96,0.28 -59.93,0.35 -89.89,0.21 c -0.06,-0.26 -0.12,-0.52 -0.17,-0.78 Z M 1507.77,1045.99 c 0.07,1.15 -0.54,3.32 0.79,3.92 c 4.6,0.07 9.19,0.17 13.78,0.29 c 0.35,0.2 0.47,0.5 0.36,0.88 c -0.35,0.09 -0.69,0.18 -1.04,0.27 c -4.65,-0.31 -9.31,-0.43 -14,-0.37 c -0.95,-0.52 -1.04,-5.16 0.11,-4.99 Z M 1090.64,1099.67 c 0.18,1.28 0.31,2.56 0.38,3.84 c -0.08,5.14 -0.13,10.28 -0.17,15.41 c -0.2,0.01 -0.41,0.03 -0.61,0.04 c -0.33,-5.48 -0.4,-10.97 -0.22,-16.46 c -0.08,-1.03 0.13,-1.97 0.62,-2.83 Z"/></g>
<g><path fill="#e2e2e2" d="M 318.22,1030.03 c 0.33,0.02 0.66,0.04 0.99,0.06 c -0.09,1.74 -0.54,3.38 -1.35,4.92 c -0.72,-0.45 -1.34,-1.01 -1.86,-1.67 c 0.55,-1.23 1.29,-2.34 2.22,-3.31 Z M 324.06,1077.9 c -0.7,0.07 -1.31,-0.14 -1.81,-0.64 c -3.06,-3.58 -7.42,-7.17 -9.46,-11.44 c -1.7,-1.26 -3.14,-2.79 -4.32,-4.58 c -0.7,-1.08 -1.3,-2.22 -1.81,-3.4 c -0.71,-0.62 -1.48,-1.14 -2.3,-1.59 c -0.15,-0.44 -0.02,-0.77 0.39,-0.99 c 1.72,0.05 3.05,0.82 3.99,2.33 c 4.72,6.29 9.6,12.45 14.64,18.49 c 0.4,0.54 0.63,1.15 0.68,1.82 Z M 315.08,1161.97 c -0.71,-0.14 -1.23,-0.53 -1.56,-1.19 c -3.26,-5.64 -6.5,-11.29 -9.75,-16.94 c -0.64,-1.19 -1.26,-2.38 -1.85,-3.55 c -0.47,-0.96 -0.63,-1.95 -0.48,-2.97 c 1.61,1.33 3,2.88 4.17,4.64 c 3.15,5.85 6.23,11.74 9.25,17.67 c 0.33,0.75 0.4,1.53 0.22,2.34 Z"/></g>
<g><path fill="#ffffff" fill-opacity="0.922" d="M 925.33,1046.07 c 20.84,-0.11 41.67,-0.1 62.5,0.03 c -0.55,0.75 -1.32,1.05 -2.31,0.88 c -19.35,-0.02 -38.69,-0.03 -58.04,-0.02 c -1.67,-0.07 -1.3,1.75 -1.45,2.83 c -0.48,0.09 -0.95,0.19 -1.43,0.29 c 0.2,-1.34 0.45,-2.68 0.73,-4.01 Z M 1821.33,1046.07 c 17.12,-0.1 34.25,-0.1 51.37,-0.01 c 0.35,1.26 0.56,2.55 0.66,3.85 c -0.48,-0.02 -0.97,-0.04 -1.45,-0.06 c 0.01,-1.16 0.61,-3.22 -1.35,-2.93 c -15.7,0.04 -31.39,0.06 -47.08,0.04 c -1.66,-0.08 -1.31,1.72 -1.51,2.79 c -0.45,0.1 -0.89,0.2 -1.33,0.31 c 0.14,-1.35 0.37,-2.68 0.69,-3.99 Z"/></g>
<g><path fill="#ffffff" fill-opacity="0.192" d="M 687.32,1078.22 c -2.29,1.53 -7.06,0.52 -9.77,0.86 c -0.5,0.32 -0.71,0.77 -0.63,1.37 c 0.04,28.03 0.04,56.07 0,84.1 c -0.02,1.05 0.5,1.56 1.55,1.52 c 5.01,0.02 10.02,-0.08 15.02,-0.31 c 0.58,0.09 1.11,0.28 1.62,0.55 c -1.17,0.4 -2.37,0.63 -3.61,0.68 c -4.67,0.09 -9.34,0.11 -14.02,0.06 c -0.95,-0.07 -1.46,-0.58 -1.52,-1.53 c -0.02,-28.68 -0.02,-57.36 0.01,-86.03 c 0.08,-0.93 0.59,-1.43 1.52,-1.48 c 3.28,-0.08 6.56,-0.01 9.83,0.21 Z"/></g>
<g><path fill="#ffffff" fill-opacity="0.082" d="M 1782.11,972.94 c -20.87,0.19 -41.75,0.27 -62.63,0.23 c -0.85,0.04 -1.69,-0.07 -2.5,-0.33 c 0.23,-0.66 0.72,-0.95 1.47,-0.85 c 20.35,0 40.7,-0.01 61.05,-0.02 c 0.64,0.1 2.76,-0.2 2.61,0.97 Z M 1716.89,978.05 c 5.06,-0.16 10.12,-0.2 15.18,-0.12 c 0,0.3 0,0.61 0,0.92 c -4.54,0.12 -9.08,0.16 -13.62,0.12 c -0.8,0.1 -1.32,-0.2 -1.56,-0.92 Z M 607.07,986.16 c 0.05,0.26 0.11,0.52 0.17,0.78 c -0.12,1.33 -0.11,2.66 0.03,4 c -0.07,0.28 -0.14,0.56 -0.21,0.84 c -0.81,0.03 -1.18,-0.39 -1.11,-1.24 c 0.17,-0.87 -0.51,-4.55 1.12,-4.38 Z M 989.22,1045.82 c 0.57,0.35 0.79,0.88 0.65,1.59 c -0.04,1.88 -0.97,16.55 1.25,16.38 c -0.24,1.29 -0.61,3.35 -1.65,4.19 c -0.44,-0.35 -0.64,-0.82 -0.6,-1.4 c -0.01,-6.03 -0.02,-12.06 -0.04,-18.09 c -0.02,-0.92 0.11,-1.8 0.39,-2.67 Z"/></g>
<g><path fill="#ffffff" fill-opacity="0.176" d="M 676.89,991.62 c 0.09,26.61 0.14,53.22 0.15,79.83 c 0.33,0.48 0.8,0.67 1.39,0.59 c 3.39,0.08 6.77,-0.03 10.14,-0.33 c 0.88,-0.04 1.72,0.13 2.52,0.51 c -1.48,0.53 -3.01,0.81 -4.58,0.82 c -3.3,-0.44 -6.61,-0.49 -9.92,-0.14 c -0.17,-0.17 -0.33,-0.33 -0.49,-0.49 c -0.14,-25.97 -0.2,-51.94 -0.16,-77.92 c -0.19,-1.15 0.13,-2.11 0.95,-2.87 Z"/></g>
<g><path fill="#ffffff" fill-opacity="0.408" d="M 1172.97,978.12 c 1.19,-0.06 1.02,1.63 1.05,2.36 c 0.02,24.68 -0.01,49.36 -0.08,74.04 c 0,0.44 -0.18,0.76 -0.54,0.97 c -0.74,-0.35 -1.25,-0.92 -1.5,-1.71 c 1.13,-0.17 0.95,-3.5 1.12,-4.28 c -0.01,-23.57 -0.02,-47.13 -0.03,-70.69 c -0.01,-0.23 -0.01,-0.46 -0.02,-0.69 Z"/></g>
<g><path fill="#ffffff" fill-opacity="0.353" d="M 1646.2,1086.93 c -0.42,12.84 -0.49,25.69 -0.22,38.54 c 0.06,2.37 0.4,4.69 1.02,6.97 c -0.04,2.49 0.04,4.98 0.25,7.46 c -0.42,-0.04 -0.7,-0.26 -0.85,-0.66 c -0.82,-5.53 -1.3,-11.11 -1.44,-16.74 c -0.07,-9.34 -0.07,-18.67 0.02,-28 c 0.32,-2.28 0.45,-4.58 0.4,-6.88 c 0.14,-0.4 0.41,-0.63 0.82,-0.69 Z"/></g>
<g><path fill="#ffffff" fill-opacity="0.553" d="M 1142.26,1087.98 c -0.4,14.35 -0.42,28.7 -0.06,43.05 c -0.4,-0.06 -0.67,-0.28 -0.82,-0.66 c -0.42,-8.62 -0.56,-17.24 -0.42,-25.87 c -0.09,-5.02 0.03,-10.03 0.38,-15.04 c -0.06,-0.73 0.24,-1.23 0.92,-1.48 Z"/></g>
<g><path fill="#ffffff" fill-opacity="0.286" d="M 850.11,1109.07 c -0.35,0.6 -0.89,0.89 -1.61,0.87 c -6.67,0.16 -13.34,0.08 -20,-0.23 c -0.84,0.01 -1.65,0.16 -2.44,0.46 c 0.02,-0.84 0.47,-1.23 1.35,-1.17 c 7.58,-0.1 15.15,-0.08 22.7,0.07 Z M 1090.24,1118.96 c 0.2,-0.01 0.41,-0.03 0.61,-0.04 c 0.02,2.79 -0.56,4.13 0.85,6.8 c 0.19,1.54 0.29,3.09 0.29,4.65 c 0.6,1.48 0.95,3.03 1.07,4.62 c -1.83,0.33 -2.15,-6.56 -2.23,-7.59 c -0.19,-0.62 -0.42,-1.22 -0.69,-1.82 c -0.17,-2.21 -0.14,-4.41 0.1,-6.62 Z"/></g>
<g><path fill="#eeeeee" d="M 306.2,986.95 c 0.92,0.02 1.51,0.49 1.79,1.41 c -0.9,0.82 -1.49,1.81 -1.79,2.96 c 0.99,0.44 2.04,0.78 3.13,1.01 c 0.93,1.08 3.04,2.22 3.12,3.72 c -1.35,0.45 -7.32,2.95 -5.44,-0.7 c -0.09,-1.89 -2.14,-0.33 -3.02,-0.14 c 0.45,-2.82 1.19,-5.57 2.21,-8.26 Z"/></g>
<g><path fill="#ffffff" fill-opacity="0.525" d="M 607.27,990.94 c 5.07,0.07 10.15,0.1 15.25,0.08 c 0.72,-0.02 1.3,0.23 1.75,0.77 c -5.74,0.3 -11.47,0.29 -17.21,-0.01 c 0.07,-0.28 0.14,-0.56 0.21,-0.84 Z M 1871.91,1049.85 c 0.48,0.02 0.97,0.04 1.45,0.06 c -0.43,0.68 -1.05,1.03 -1.86,1.07 c -5.87,-0.1 -11.73,0.02 -17.58,0.36 c 0.25,-0.76 0.78,-1.2 1.59,-1.3 c 5.47,0 10.93,-0.06 16.4,-0.19 Z"/></g>
<g><path fill="#ffffff" fill-opacity="0.333" d="M 714.44,1105.79 c 0.41,1.54 0.61,3.11 0.59,4.71 c -0.43,6.46 -0.73,13.59 0,20 c 0.01,2.25 -0.21,4.48 -0.65,6.68 c -0.25,-0.87 -0.41,-1.76 -0.47,-2.66 c 0.16,-8.68 0.16,-17.35 0.01,-26.02 c 0,-0.94 0.18,-1.84 0.52,-2.71 Z"/></g>
<g><path fill="#ffffff" fill-opacity="0.573" d="M 1443.35,1172.91 c -0.47,1.35 -1.41,2.05 -2.84,2.1 c -6.68,0.01 -13.35,0.02 -20.02,0.02 c -1.06,0 -2.01,-0.33 -2.85,-0.98 c 7.27,0.27 14.56,0.34 21.85,0.23 c 1.47,0.07 2.76,-0.39 3.86,-1.37 Z"/></g>
<g><path fill="#ffffff" fill-opacity="0.588" d="M 1320.81,1172.93 c 1.15,0.64 2.37,1.01 3.68,1.12 c 6.93,0.01 13.86,-0.03 20.79,-0.12 c -0.4,0.67 -1,1.02 -1.78,1.06 c -7.02,0.04 -14.04,0.03 -21.06,-0.04 c -1.48,0.05 -2.02,-0.62 -1.63,-2.02 Z"/></g>
<g><path fill="#d2d2d2" d="M 307.72,1134.89 c 4.54,7.83 9.32,15.49 14.36,22.97 c -0.27,0.08 -0.54,0.16 -0.81,0.24 c -2.76,-2.9 -5.27,-6.02 -7.5,-9.38 c -2.33,-4.3 -4.66,-8.59 -6.97,-12.88 c 0.2,-0.42 0.51,-0.74 0.92,-0.95 Z"/></g>
<g><path fill="#ffffff" fill-opacity="0.42" d="M 875.92,1174.32 c 1.19,-0.13 2.39,-0.26 3.58,-0.38 c 5.02,0.51 10.04,0.51 15.05,-0.01 c 0.88,0.06 1.76,0.17 2.63,0.33 c -0.09,0.33 -0.31,0.52 -0.67,0.56 c -6.34,0.14 -12.68,0.19 -19.03,0.14 c -0.68,0.09 -1.2,-0.13 -1.56,-0.64 Z"/></g>
<g><path fill="#a3a3a3" d="M 294.69,1072.92 c -0.45,0.32 -0.91,0.64 -1.37,0.95 c -1.09,-3.47 0.96,-6.92 -1.75,-9.87 c -0.62,-1.13 0.67,-1.63 1.5,-0.68 c 2.58,2.49 2.31,6.39 1.62,9.6 Z"/></g>
<g><path fill="#b9b9b9" d="M 301.86,1051.15 c 0.99,-0.42 3.28,0.42 2.42,1.68 c -1.48,0.38 -2.28,-0.18 -2.42,-1.68 Z M 270.16,1202.94 c -2.26,0.62 -1.13,-5.09 -0.88,-6.07 c 0.67,-0.94 1.35,-1.87 2.05,-2.79 c 0.31,0.37 0.44,0.79 0.38,1.28 c -0.58,2.52 -1.1,5.05 -1.55,7.58 Z"/></g>
<g><path fill="#707070" d="M 251.22,1077.91 c 0.77,-1.58 8.28,-6.15 10.33,-6.97 c 0.84,1.23 -8.65,7.11 -10.33,6.97 Z"/></g>
<g><path fill="#ffffff" fill-opacity="0.169" d="M 623.97,1166.12 c -0.02,0.23 -0.04,0.46 -0.06,0.69 c -5.67,0.3 -11.33,0.33 -17,0.08 c 0.21,-0.71 0.72,-1.01 1.53,-0.89 c 5.17,-0.05 10.35,-0.01 15.53,0.12 Z"/></g>
<g><path fill="#8b8b8b" d="M 319.95,1161.87 c -0.51,0.51 -1.03,0.52 -1.57,0.03 c -0.35,-0.16 -0.66,-0.4 -0.91,-0.7 c -0.7,-1.28 -4.6,-7.91 -3.93,-8.87 c 2.22,3.11 4.36,6.29 6.41,9.54 Z"/></g>
<g><path fill="#b9b9b9" d="M 279.99,1035.91 c 1.62,0.74 4.16,5.89 3.82,7.57 c -2.09,2.67 -3.73,-6.5 -3.82,-7.57 Z"/></g>
<g><path fill="#767676" d="M 302.77,1125.79 c -0.34,0.07 -0.69,0.14 -1.03,0.21 c -0.28,-0.02 -0.47,-0.17 -0.57,-0.46 c -0.05,-2.09 -0.43,-4.12 -1.14,-6.09 c -0.1,-0.52 0.03,-0.94 0.41,-1.27 c 1.7,1.55 2.01,5.38 2.33,7.61 Z M 291.78,1161.24 c 0.37,-1.24 -0.17,-4.29 0.77,-5.09 c 0.69,1.31 1.01,4.43 -0.77,5.09 Z"/></g>
<g><path fill="#c8c8c8" d="M 284.11,1047.02 c 1.2,-3.75 4.79,5.35 4.94,6.31 c -1.56,0.92 -4.5,-4.98 -4.94,-6.31 Z"/></g>
<g><path fill="#ffffff" fill-opacity="0.114" d="M 1716.98,972.84 c 0.24,1.74 0.21,3.48 -0.09,5.21 c -1.4,0.13 -1.4,-5.07 0.09,-5.21 Z M 759.9,1026.03 c 1.92,-0.52 1.08,7.42 0.88,8.49 c -0.19,0.4 -0.5,0.55 -0.91,0.44 c 0.1,-2.98 0.11,-5.96 0.03,-8.93 Z"/></g>
<g><path fill="#5f5f5f" d="M 297.23,1059.05 c -0.29,-0.94 0.15,-3.05 -1.06,-3.39 c 2.18,-1.74 1.91,2.3 1.06,3.39 Z M 296.17,1059.06 c 0.35,0 0.7,-0.01 1.06,-0.01 c 0,0.8 -0.05,1.6 -0.14,2.4 c -0.36,1.62 -0.75,1.64 -1.16,0.07 c -0.09,-0.84 -0.01,-1.66 0.24,-2.46 Z M 295.96,1117.99 c -0.02,-0.38 0.14,-0.64 0.49,-0.77 c 0.73,0.82 0.74,1.64 0.02,2.48 c -0.42,-0.48 -0.59,-1.05 -0.51,-1.71 Z"/></g>
<g><path fill="#ffffff" fill-opacity="0.133" d="M 849.85,1070.94 c 0.33,2.89 0.28,5.77 -0.14,8.64 c 0,0.82 0.12,1.62 0.37,2.4 c -0.42,0.14 -0.71,0 -0.88,-0.42 c -0.15,-3.05 -0.25,-6.1 -0.29,-9.16 c -0.07,-0.78 0.24,-1.27 0.94,-1.46 Z"/></g>
<g><path fill="#868686" d="M 307.72,1134.89 c -0.41,0.21 -0.72,0.53 -0.92,0.95 c -0.98,-1.81 -1.9,-3.67 -2.76,-5.6 c -0.21,-0.49 -0.1,-0.86 0.34,-1.11 c 1.12,0.16 2.74,4.68 3.34,5.76 Z"/></g>
<g><path fill="#818181" d="M 300.76,1047.9 c -0.33,0.02 -0.67,0.04 -1.01,0.07 c -0.52,-0.27 -0.73,-0.7 -0.61,-1.28 c 0.76,-0.6 1.46,0.61 1.62,1.21 Z M 321.27,1158.1 c 0.27,-0.08 0.54,-0.16 0.81,-0.24 c 0.93,0.5 1.65,1.23 2.15,2.19 c 0.47,0.59 0.58,1.21 0.32,1.86 c -1.47,-0.94 -2.56,-2.21 -3.28,-3.81 Z"/></g>
<g><path fill="#bebebe" d="M 288.95,1102.05 c 0.41,-0.04 0.81,-0.08 1.22,-0.13 c 0.65,0.31 0.99,0.84 1,1.59 c 0.13,1.46 0.27,2.89 0.43,4.29 c -1.74,-0.47 -2.41,-4.16 -2.65,-5.75 Z"/></g>
<g><path fill="#dcdcdc" d="M 320,999.98 c 1.16,-3.28 4.21,1.73 2.57,2.76 c -1.03,-0.74 -1.89,-1.66 -2.57,-2.76 Z"/></g>
<g><path fill="#b5b5b5" d="M 319.21,1030.09 c -0.33,-0.02 -0.66,-0.04 -0.99,-0.06 c 0.04,-1.18 0.51,-2.12 1.42,-2.84 c 0.83,0.66 0.44,2.41 -0.43,2.9 Z M 301.74,1126 c 0.34,-0.07 0.69,-0.14 1.03,-0.21 c 0.06,0.9 0.73,2.31 -0.2,2.96 c -0.63,-0.79 -0.91,-1.71 -0.83,-2.75 Z"/></g>
<g><path fill="#5c5c5c" d="M 326.11,1081.14 c 0.36,0.03 0.72,0.06 1.08,0.08 c 1.16,-0.29 2.04,1.61 2.58,2.38 c -1.53,1.15 -2.76,-1.6 -3.66,-2.46 Z"/></g>
<g><path fill="#757575" d="M 251.22,1077.91 c -0.42,0.9 -3.23,3.96 -4.13,2.74 c 0.95,-1.56 2.33,-2.47 4.13,-2.74 Z"/></g>
<g><path fill="#9a9a9a" d="M 324.35,1079.09 c 0.28,-0.03 0.57,-0.07 0.86,-0.1 c 0.57,0.13 0.83,0.5 0.76,1.11 c -0.82,0.05 -1.36,-0.29 -1.62,-1.01 Z M 359.13,1222.08 c 0.57,-0.01 1.14,0 1.71,0.05 c 0.07,0.18 0.13,0.37 0.19,0.56 c -0.7,0.15 -1.41,0.15 -2.12,0.03 c 0.07,-0.22 0.14,-0.43 0.22,-0.64 Z"/></g>
<g><path fill="#969696" d="M 291.21,1121.15 c 0.5,-0.01 1,-0.01 1.5,0 c 0.25,0.56 0.17,1.03 -0.26,1.41 c -0.75,-0.18 -1.16,-0.65 -1.24,-1.41 Z"/></g>
<g><path fill="#afafaf" d="M 296.17,1055.66 c 1.21,0.34 0.77,2.45 1.06,3.39 c -0.36,0 -0.71,0.01 -1.06,0.01 c -0.13,-1.13 -0.13,-2.26 0,-3.4 Z"/></g>
<g><path fill="#b4b4b4" d="M 310.29,1037.83 c -0.15,-0.3 -0.3,-0.6 -0.46,-0.9 c 0.7,-1.1 1.04,-0.98 1.01,0.37 c -0.1,0.29 -0.28,0.47 -0.55,0.53 Z"/></g>
<g><path fill="#9e9e9e" d="M 302.89,1001.19 c 0.03,-0.47 0.26,-0.79 0.69,-0.96 c 0.85,0.48 -0.41,0.85 -0.69,0.96 Z"/></g>
<g><path fill="#d8d8d8" d="M 324.06,1077.9 c 0.57,0.16 0.95,0.53 1.15,1.09 c -0.29,0.03 -0.58,0.07 -0.86,0.1 c -0.1,-0.4 -0.19,-0.8 -0.29,-1.19 Z"/></g>
<g><path fill="#a7a7a7" d="M 325.97,1080.1 c 0.64,0.12 1.04,0.5 1.22,1.12 c -0.36,-0.02 -0.72,-0.05 -1.08,-0.08 c -0.05,-0.35 -0.09,-0.7 -0.14,-1.04 Z"/></g>
<g><path fill="#c5c5c5" d="M 299.75,1047.97 c 0.34,-0.03 0.68,-0.05 1.01,-0.07 c -0.15,1.08 -0.49,1.1 -1.01,0.07 Z"/></g>
<g><path fill="#ffffff" stroke="#ffffff" stroke-width="0.5" d="M 1157.74,973.39 c 1.59,0.09 3.18,-0.03 4.75,-0.35 c 19.98,0.05 39.97,0.1 59.95,0.15 c 0.51,0 0.89,0.21 1.16,0.63 c 0.18,63.91 0.24,127.82 0.18,191.74 c 0.08,1.03 0.64,1.56 1.67,1.58 c 3.85,-0.05 7.69,-0.01 11.53,0.12 c -0.44,1.62 -0.35,3.22 0.27,4.77 c -19.62,-0.1 -39.24,-0.14 -58.86,-0.13 c -1.71,-3.51 -1.95,-11.11 -2.88,-15.21 c -0.1,-0.69 -0.47,-1.13 -1.12,-1.3 c -1.61,2.47 -3.32,4.88 -5.13,7.26 c -5.27,5.82 -11.77,9.42 -19.51,10.81 c -0.35,0.07 -0.51,0.27 -0.48,0.61 c -3.25,-0.16 -6.5,-0.05 -9.74,0.31 c -3.62,-0.06 -7.22,-0.18 -10.82,-0.37 c -0.05,-0.29 -0.23,-0.45 -0.54,-0.47 c -19.58,-3.12 -31.72,-19.97 -35.11,-38.55 c -0.12,-1.59 -0.47,-3.14 -1.07,-4.62 c 0,-1.56 -0.1,-3.11 -0.29,-4.65 c -1.41,-2.67 -0.83,-4.01 -0.85,-6.8 c 0.04,-5.13 0.09,-10.27 0.17,-15.41 c -0.07,-1.28 -0.2,-2.56 -0.38,-3.84 c 1.8,-30.64 14.94,-55.01 48.43,-56.47 c 2.62,-0.11 5.23,-0.09 7.85,0.04 c 9.16,0.58 19.19,2.75 24.98,10.54 c 0.25,0.79 0.76,1.36 1.5,1.71 c 0.36,-0.21 0.54,-0.53 0.54,-0.97 c 0.07,-24.68 0.1,-49.36 0.08,-74.04 c -0.03,-0.73 0.14,-2.42 -1.05,-2.36 c -5.1,-0.11 -10.18,-0.26 -15.25,-0.43 c -0.38,-1.43 -0.37,-2.87 0.02,-4.3 Z M 1716.98,972.84 c 0.81,0.26 1.65,0.37 2.5,0.33 c 20.88,0.04 41.76,-0.04 62.63,-0.23 c -0.2,42.19 -0.27,84.38 -0.19,126.58 c -0.32,3.54 2.48,1.14 4.18,0.63 c 19.42,-15.95 38.69,-32.08 57.82,-48.36 c 1.44,0 1.51,-1.89 -0.4,-1.79 c -7.19,0.1 -14.38,0.02 -21.55,-0.25 c 0.2,-1.07 -0.15,-2.87 1.51,-2.79 c 15.69,0.02 31.38,0 47.08,-0.04 c 1.96,-0.29 1.36,1.77 1.35,2.93 c -5.47,0.13 -10.93,0.19 -16.4,0.19 c -0.81,0.1 -1.34,0.54 -1.59,1.3 c -10.03,8.31 -19.98,16.71 -29.87,25.2 c -0.49,0.49 -0.65,1.08 -0.46,1.76 c 14.9,29.28 29.83,58.54 44.79,87.79 c 1.19,2.03 6.88,0.55 8.98,1.11 c 1.43,0.53 0.94,2.63 1,3.8 c -24.51,0.01 -49.02,0.01 -73.53,0 c 0.1,-1.09 -0.44,-3.22 0.83,-3.78 c 2.96,-0.09 5.91,-0.12 8.86,-0.1 c 0.81,0.09 1.48,-0.13 2.03,-0.66 c -9.61,-19.86 -19.27,-39.7 -28.97,-59.52 c -0.83,-1.75 -3.59,-0.45 -4.89,-0.03 c -0.21,0.13 -0.41,0.27 -0.62,0.41 c -0.76,-0.03 -1.12,0.35 -1.08,1.14 c 0,18.69 -0.01,37.37 -0.02,56.06 c 0,0.65 -0.15,2.58 1.09,2.21 c 0.28,0.12 0.56,0.25 0.84,0.37 c 3.48,0 6.95,0.04 10.42,0.13 c 1.34,0.72 0.91,3.55 0.27,4.66 c -25.1,0.11 -50.2,0.04 -75.29,-0.19 c -0.17,-1.63 -0.23,-3.27 -0.19,-4.91 c 1.69,0.62 12.12,0.62 13.69,-0.11 c 1.33,0.46 1.26,-1.42 1.22,-2.16 c -0.02,-61.35 -0.02,-122.69 0,-184.03 c 0.16,-1.07 -0.15,-1.92 -0.95,-2.56 c -5.06,-0.08 -10.12,-0.04 -15.18,0.12 c 0.3,-1.73 0.33,-3.47 0.09,-5.21 Z M 1574.86,999.14 c 0.07,2.22 0.04,4.43 -0.08,6.65 c -1.98,27.29 -44.68,29.27 -51.56,6.56 c -11.94,-41.82 49.12,-45.11 51.64,-13.21 Z M 607.24,986.94 c 29.96,0.14 59.93,0.07 89.89,-0.21 c 9.41,0.43 18.71,1.63 27.92,3.6 c 19.01,4.44 33.76,14.69 34.85,35.7 c 0.08,2.97 0.07,5.95 -0.03,8.93 c -1.35,18.28 -14.18,30.52 -31.14,35.49 c -3.86,0.92 -7.67,1.94 -11.44,3.06 c 5.55,1.29 11.12,2.61 16.72,3.96 c 23.39,6.44 37.79,22.86 35.07,48.03 c -1.89,26.05 -18.45,36.6 -41.71,42.33 c -7.31,1.52 -24.47,5.08 -31.23,3.53 c -0.01,0.08 -0.01,0.16 -0.02,0.24 c -4.2,0.27 -8.41,0.38 -12.62,0.32 c -25.4,0.09 -50.79,0 -76.17,-0.25 c -0.08,-1.6 -0.22,-3.19 -0.42,-4.78 c 5.67,0.25 11.33,0.22 17,-0.08 c 1.18,0.08 1.07,-1.54 1.1,-2.29 c 0.04,-57.33 -0.01,-114.65 -0.14,-171.97 c -0.09,-0.35 -0.29,-0.6 -0.6,-0.76 c -0.45,-0.54 -1.03,-0.79 -1.75,-0.77 c -5.1,0.02 -10.18,-0.01 -15.25,-0.08 c -0.14,-1.34 -0.15,-2.67 -0.03,-4 Z M 1311.27,993.03 c -0.18,0.76 -0.13,1.51 0.14,2.25 c 13.7,40.27 27.42,80.53 41.16,120.78 c 0.83,2.06 1.89,-1.08 1.99,-1.78 c 6.93,-23.9 13.78,-47.83 20.54,-71.78 c -0.18,-3.67 -4.21,-13.03 -4.84,-17.36 c -1.94,-3.43 -8.93,-30.24 -10.62,-30.87 c 0.22,-1.25 0.71,-3.03 -1.17,-3.1 c -4.31,-0.09 -8.62,-0.18 -12.93,-0.24 c -0.54,-0.31 -0.83,-0.77 -0.87,-1.4 c -0.47,-1.66 0.12,-2.52 1.77,-2.6 c 26.03,0.09 52.06,0.1 78.1,0.05 c 2.04,-0.36 1.85,3.1 0.89,3.95 c -4.58,0.05 -9.15,0.15 -13.72,0.29 c -0.86,0.66 -0.82,2.94 0.5,2.74 c -0.12,0.79 -0.05,1.56 0.19,2.32 c 12.32,39.03 24.62,78.05 36.9,117.08 c 0.26,1.36 1.49,2.19 1.84,0.3 c 9.93,-39.06 19.85,-78.13 29.76,-117.2 c 0.2,-0.72 0.22,-1.44 0.07,-2.17 c 1.59,-0.44 1.38,-3.3 -0.47,-3.24 c -7.98,0.02 -15.96,-0.01 -23.94,-0.11 c -1.03,-0.72 -0.97,-3.06 0.06,-3.81 c 16.93,-0.15 33.86,-0.16 50.79,-0.03 c 0.45,0.34 0.64,0.8 0.57,1.38 c 0.15,0.92 -0.04,1.73 -0.57,2.44 c -4.96,0.11 -9.93,0.16 -14.89,0.14 c -0.81,0.13 -1.35,0.58 -1.61,1.36 c -2.05,7.21 -4.11,14.47 -6.2,21.76 c -13.2,50 -26.49,99.98 -39.85,149.94 c -0.12,2.16 -2.52,6.95 -1.51,8.79 c -1.1,0.98 -2.39,1.44 -3.86,1.37 c -7.29,0.11 -14.58,0.04 -21.85,-0.23 c 0.22,-0.78 0.2,-1.56 -0.05,-2.33 c -12.57,-38.51 -25.26,-76.97 -38.07,-115.38 c -0.55,0.29 -0.89,0.74 -1.03,1.36 c -10.97,38.73 -22.52,77.42 -33.21,116.23 c -6.93,0.09 -13.86,0.13 -20.79,0.12 c -1.31,-0.11 -2.53,-0.48 -3.68,-1.12 c 0.06,-0.57 -0.02,-1.13 -0.22,-1.67 c -21.8,-59.44 -43.47,-118.92 -65.03,-178.45 c -0.12,-0.28 -0.32,-0.43 -0.62,-0.44 c -0.12,-0.81 -0.6,-1.25 -1.43,-1.32 c -3.31,0.03 -6.62,-0.01 -9.93,-0.13 c -0.52,-0.72 -0.74,-1.54 -0.64,-2.47 c -0.13,-0.61 0.05,-1.1 0.54,-1.46 c 27.68,0.03 55.36,0.02 83.04,-0.01 c 2.34,-0.24 2.49,2.95 0.94,3.97 c -5.31,0.07 -10.62,0.12 -15.93,0.14 c -1.77,0.05 -1.55,2.07 -0.26,1.94 Z M 691.09,1072.22 c 10.5,-1.55 16.27,-15.21 15.68,-24.2 c 0.87,-0.59 1.22,-1.42 1.08,-2.5 c -0.25,-5.33 -0.33,-10.67 -0.22,-16.02 c 0.51,-3.65 0.55,-7.31 0.11,-10.98 c -0.05,-0.72 -0.39,-1.23 -1.04,-1.53 c 0.9,-3.54 -0.95,-9.87 -1.99,-13.42 c -4.2,-12.48 -16.64,-12.5 -27.82,-11.95 c -0.82,0.76 -1.14,1.72 -0.95,2.87 c -0.04,25.98 0.02,51.95 0.16,77.92 c 0.16,0.16 0.32,0.32 0.49,0.49 c 3.31,-0.35 6.62,-0.3 9.92,0.14 c 1.57,-0.01 3.1,-0.29 4.58,-0.82 Z M 837.19,1043.21 c 4.86,-0.15 9.72,-0.12 14.59,0.08 c 9.84,0.14 19.29,2.11 28.35,5.89 c 13.98,7 15.99,17.51 19.08,31.55 c 0.1,1.94 -0.01,3.86 -0.34,5.77 c 0.17,19.33 0.22,38.66 0.16,58 c 0.14,2.22 0.38,4.41 0.72,6.56 c 0.1,0.66 0.2,1.31 0.3,1.97 c 0.75,4.08 2.69,7.88 7.41,7.72 c 11.38,-1.88 7.92,-24.7 11.07,-26.82 c 1.57,-0.57 2.65,-0.1 3.24,1.41 c -1.49,18.68 -3.81,34.28 -24.59,38.92 c -0.87,-0.16 -1.75,-0.27 -2.63,-0.33 c -5.01,0.52 -10.03,0.52 -15.05,0.01 c -1.19,0.12 -2.39,0.25 -3.58,0.38 c -7.91,-2.51 -16.19,-4.18 -21.2,-11.64 c -1.33,-2.02 -2.43,-4.13 -3.32,-6.33 c -0.42,0.02 -0.72,0.21 -0.9,0.59 c -3.76,10.47 -10.25,14.34 -20.34,17.44 c -2.74,-0.93 -4.89,-0.18 -7.64,-0.06 c -3.57,0.01 -7.12,-0.03 -10.66,-0.12 c -14.43,-1.36 -27.07,-8.57 -29.63,-23.85 c -5.29,-31.37 18.22,-38.26 43.83,-40.18 c 0.79,-0.3 1.6,-0.45 2.44,-0.46 c 6.66,0.31 13.33,0.39 20,0.23 c 0.72,0.02 1.26,-0.27 1.61,-0.87 c 0.07,-9.03 0.06,-18.06 -0.03,-27.09 c -0.25,-0.78 -0.37,-1.58 -0.37,-2.4 c 0.42,-2.87 0.47,-5.75 0.14,-8.64 c -1.35,-8.12 -0.3,-19.95 -9.55,-23.55 c -12.59,-3.21 -17.95,5.56 -14.86,16.8 c 1.18,2.19 6.87,-0.75 7.47,2.36 c 11.72,36.93 -43.02,42.29 -44.39,11.95 c -2.46,-28.04 26.81,-34.64 48.67,-35.29 Z M 1024.08,1043.24 c 3.23,-0.19 6.46,-0.18 9.69,0.04 c 22.62,2.11 31.46,13.71 35.58,34.62 c -0.33,1.18 -0.49,2.38 -0.47,3.61 c 0.14,27.67 0.18,55.34 0.12,83.01 c -0.03,0.68 -0.12,2.62 1.16,2.12 c 2.4,1.11 10.12,0.11 13.18,0.58 c 1.49,0.98 1.08,3.36 0.25,4.67 c -24.95,-0.02 -49.9,0.04 -74.85,0.19 c 0.5,-1.4 0.69,-2.85 0.59,-4.34 c 0.14,-0.15 0.27,-0.3 0.41,-0.44 c 3.06,0.08 6.1,-0.11 9.12,-0.57 c 1.39,-0.78 1.24,-2.87 1.34,-4.22 c 0.03,-30.86 -0.08,-61.71 -0.34,-92.55 c -0.1,-15.16 -11.5,-19 -21.13,-7.91 c -5.53,7.39 -8.72,15.69 -9.56,24.91 c -0.28,25.18 -0.41,50.36 -0.37,75.55 c 0.1,1.35 -0.04,3.43 1.34,4.22 c 3.04,0.48 6.1,0.65 9.18,0.51 c 1.28,0.55 0.77,2.65 0.86,3.74 c -24.24,0.01 -48.48,0.04 -72.73,0.07 c -2.56,0.35 -0.85,-2.61 -2.47,-3.08 c 0.36,-0.55 0.88,-0.81 1.54,-0.81 c 3.04,-0.34 9.94,0.56 12.43,-0.55 c 1.21,0.56 1.08,-1.52 1.07,-2.09 c 0.02,-37.66 -0.02,-75.33 -0.11,-112.99 c -0.04,-0.48 -0.26,-0.85 -0.67,-1.1 c -3.58,-0.19 -7.15,-0.21 -10.73,-0.06 c -0.86,-0.08 -1.68,-0.27 -2.48,-0.58 c 0.15,-1.08 -0.22,-2.9 1.45,-2.83 c 19.35,-0.01 38.69,0 58.04,0.02 c 0.99,0.17 1.76,-0.13 2.31,-0.88 c 0.47,-0.1 0.93,-0.19 1.39,-0.28 c -0.28,0.87 -0.41,1.75 -0.39,2.67 c 0.02,6.03 0.03,12.06 0.04,18.09 c -0.04,0.58 0.16,1.05 0.6,1.4 c 1.04,-0.84 1.41,-2.9 1.65,-4.19 c 9.05,-13.77 15.79,-19.44 32.96,-20.55 Z M 1660.07,1043.19 c 3.62,-0.1 7.24,-0.08 10.86,0.04 c 2,0.09 3.98,0.31 5.95,0.67 c 0.95,0.12 1.91,0.24 2.87,0.37 c 20.65,3.37 36.44,15.39 33.13,38.22 c -2.83,26.69 -44.18,25.41 -45.04,-0.99 c -0.08,-3.89 0.21,-7.73 0.88,-11.52 c 1.77,0.03 8.56,1.03 9.34,-0.8 c 8.39,-24.14 -18.7,-28.3 -26.87,-10.62 c -2.97,5.71 -6.14,22.88 -4.99,28.37 c -0.41,0.06 -0.68,0.29 -0.82,0.69 c 0.05,2.3 -0.08,4.6 -0.4,6.88 c -0.09,9.33 -0.09,18.66 -0.02,28 c 0.14,5.63 0.62,11.21 1.44,16.74 c 0.15,0.4 0.43,0.62 0.85,0.66 c -0.35,8.57 6.06,22.14 15.56,24.52 c 25.08,5.81 40.57,-9.78 46.41,-32.7 c 0.74,-1 5.59,-1.38 4.41,1.58 c -7.72,35.87 -36.71,44.66 -69.96,40.38 c -33.35,-5.33 -48.24,-27.07 -49.55,-59.71 c -0.05,-2.98 -0.05,-5.96 0,-8.94 c 1.01,-38.78 28.49,-60.92 65.95,-61.84 Z M 1507.77,1045.99 c 21.4,0 42.79,0.04 64.18,0.14 c 0.57,0.69 0.78,1.5 0.64,2.42 c -0.01,39.02 -0.01,78.03 0.01,117.04 c 0.17,1.04 0.79,1.56 1.86,1.55 c 4.29,-0.01 8.58,-0.02 12.87,-0.05 c -0.08,1.3 -0.1,2.6 -0.06,3.91 c -26.18,0.02 -52.36,0.01 -78.54,-0.02 c 0.04,-1.34 0.03,-2.68 -0.03,-4.02 c 4.28,0.16 8.56,0.22 12.85,0.17 c 1.01,-0.04 1.54,-0.57 1.6,-1.58 c -0.01,-37.35 -0.01,-74.71 0.01,-112.06 c 0.01,-0.84 -0.15,-1.64 -0.46,-2.41 c 0.11,-0.38 -0.01,-0.68 -0.36,-0.88 c -4.59,-0.12 -9.18,-0.22 -13.78,-0.29 c -1.33,-0.6 -0.72,-2.77 -0.79,-3.92 Z M 1142.26,1087.98 c -0.68,0.25 -0.98,0.75 -0.92,1.48 c -0.35,5.01 -0.47,10.02 -0.38,15.04 c -0.14,8.63 0,17.25 0.42,25.87 c 0.15,0.38 0.42,0.6 0.82,0.66 c -1.09,10.42 0.03,35.47 16.27,31.78 c 9.36,-2.56 13.83,-9.75 15.34,-18.96 c 0.43,-3.44 0.62,-6.89 0.56,-10.35 c -0.01,-17.33 -0.01,-34.67 0,-52 c 0.01,-3.17 -0.13,-6.34 -0.41,-9.5 c -1.31,-11.55 -8.51,-25.53 -22.44,-19.95 c -8.98,4.82 -9.82,28.07 -9.26,35.93 Z M 695.11,1166.31 c 14.21,-2.81 18.2,-16.4 19.27,-29.13 c 0.44,-2.2 0.66,-4.43 0.65,-6.68 c -0.73,-6.41 -0.43,-13.54 0,-20 c 0.02,-1.6 -0.18,-3.17 -0.59,-4.71 c -1.76,-17.11 -9.71,-26.03 -27.12,-27.57 c -3.27,-0.22 -6.55,-0.29 -9.83,-0.21 c -0.93,0.05 -1.44,0.55 -1.52,1.48 c -0.03,28.67 -0.03,57.35 -0.01,86.03 c 0.06,0.95 0.57,1.46 1.52,1.53 c 4.68,0.05 9.35,0.03 14.02,-0.06 c 1.24,-0.05 2.44,-0.28 3.61,-0.68 Z M 832.7,1128.89 c -0.37,1.17 -0.6,2.38 -0.69,3.61 c -0.18,6.66 -0.18,13.33 -0.01,20 c 0.02,1.57 0.23,3.12 0.64,4.64 c 0.2,3.32 1.84,5.54 4.9,6.68 c 16.23,1.47 12.24,-39.17 12.62,-48.36 c 0.01,-0.61 -0.24,-1.08 -0.74,-1.4 c -9.97,-0.77 -15.08,5.72 -16.72,14.83 Z"/></g>
<g><path fill="#ffffff" fill-opacity="0.208" d="M 832.7,1128.89 c 0.65,1.84 0.72,3.71 0.21,5.62 c 0.12,5.32 0.12,10.65 -0.01,15.98 c 0.01,2.5 1.03,4.25 -0.26,6.65 c -0.41,-1.52 -0.62,-3.07 -0.64,-4.64 c -0.17,-6.67 -0.17,-13.34 0.01,-20 c 0.09,-1.23 0.32,-2.44 0.69,-3.61 Z"/></g>
<g><path fill="#2d2d2d" d="M 297.76,1140.71 c 2.36,-2.1 2.37,1.28 4.16,-0.42 c 0.59,1.17 1.21,2.36 1.85,3.55 c -0.37,0.34 -0.75,0.69 -1.12,1.04 c -0.4,-0.26 -0.82,-0.5 -1.26,-0.72 c -0.47,0.74 -0.87,1.53 -1.2,2.38 c -1.71,0.6 -2.28,-4.85 -2.43,-5.83 Z"/></g>
<g><path fill="#323232" d="M 292.17,1003 c -0.05,2.46 -0.04,4.92 0.04,7.38 c 0.15,0.39 0.42,0.59 0.82,0.61 c -1.16,0.9 -2.29,1.86 -3.4,2.89 c 0.27,-3.92 0.34,-7.84 0.21,-11.77 c 0.16,-0.32 0.4,-0.57 0.71,-0.74 c 0.72,0.81 0.17,1.91 1.62,1.63 Z"/></g>
<g><path fill="#181818" d="M 292.17,1003 c -1.45,0.28 -0.9,-0.82 -1.62,-1.63 c -0.31,0.17 -0.55,0.42 -0.71,0.74 c -5.93,0.31 -10.28,12.43 -10.36,17.32 c -0.06,1.27 0.45,1.56 1.54,0.85 c 2.8,-2.23 5.67,-4.36 8.61,-6.4 c 1.11,-1.03 2.24,-1.99 3.4,-2.89 c 2.81,-5.79 7.47,-10.54 10.96,-15.78 c 0.88,-0.19 2.93,-1.75 3.02,0.14 c -1.88,3.65 4.09,1.15 5.44,0.7 c -0.08,-1.5 -2.19,-2.64 -3.12,-3.72 c -1.09,-0.23 -2.14,-0.57 -3.13,-1.01 c 0.3,-1.15 0.89,-2.14 1.79,-2.96 c 5.11,-5.52 10.44,-10.81 16.01,-15.86 c 10.28,-8.95 22.52,-17.34 30.22,-28.76 c 1.12,-1.09 1.73,-0.86 1.84,0.67 c -1.05,3.32 -5.9,8.17 -8.35,10.8 c -11.47,11.03 -24.64,19.78 -35.51,31.47 c -3.54,3.88 0.48,5.91 3.43,7.95 c 1.54,-0.02 -0.33,-1.64 1.81,-1.8 c 2.79,1.32 3.38,1.92 6.55,0.5 c 2.64,-1.83 5.48,-3.23 8.53,-4.2 c 1.26,0.11 1.48,0.63 0.66,1.56 c -2.05,1.33 -4.15,2.57 -6.29,3.74 c -3.85,4.18 -1.28,6.06 -1.05,11.07 c 0.16,2.15 -1.52,7.69 -0.31,9.22 c 1.92,-1.89 3.82,-3.83 5.71,-5.8 c 0.99,-0.63 8.88,-15.67 9.43,-10.57 c -1.47,2.78 -1.58,5.9 -3.51,8.31 c -5.31,4.81 -8.84,10.89 -13.36,16.38 c -0.47,0.46 -5.47,22.35 -7.17,15.55 c 0.2,-1.26 0.61,-2.45 1.23,-3.58 c 0.81,-1.54 1.26,-3.18 1.35,-4.92 c 0.87,-0.49 1.26,-2.24 0.43,-2.9 c -0.91,0.72 -1.38,1.66 -1.42,2.84 c -0.93,0.97 -1.67,2.08 -2.22,3.31 c -2.24,3.58 -4.25,7.27 -6.03,11.07 c -1.55,0.88 -1.51,-1.63 -1.59,-2.48 c 0.56,-1.4 1.19,-2.76 1.91,-4.1 c 0.27,-0.06 0.45,-0.24 0.55,-0.53 c 0.03,-1.35 -0.31,-1.47 -1.01,-0.37 c -1.89,0.83 -8.24,5.51 -8.27,7.45 c 2.11,3.9 5.87,9.71 10.92,9.58 c 1.11,-0.23 5.68,0.77 6.05,-0.46 c -0.6,-0.82 -0.81,-2.8 0.78,-2.35 c 0.7,0.92 1.47,1.79 2.31,2.61 c 3.17,1.79 13.77,2.14 17.89,3.26 c 21.16,4.66 41.18,12.87 61.85,19.26 c 2.32,0.64 1.77,2.51 -0.84,1.71 c -21.56,-6.64 -42.97,-15.61 -65.22,-19.56 c -3.54,-0.39 -7.08,-0.77 -10.6,-1.15 c -0.38,0.27 -0.46,0.61 -0.23,1.03 c 11.18,16.79 24.6,31.52 38.21,46.32 c 0.54,0.61 2.28,2.9 -0.04,2.41 c -4.56,-4.49 -8.99,-9.12 -13.29,-13.89 c -10.19,-10.99 -19.49,-22.69 -27.9,-35.09 c -1.43,-1.11 -3.06,-1.75 -4.88,-1.92 c -1.01,0.09 -7.13,-0.92 -4.83,1.79 c 9.68,12.81 19.84,25.24 30.48,37.29 c 8.28,7.09 16.55,14.16 24.83,21.23 c 1.1,0.86 1.99,1.88 2.66,3.06 c -0.52,0.6 -1.12,0.66 -1.81,0.18 c -3.93,-3.39 -7.91,-6.72 -11.93,-10.01 c -10.74,-7.06 -19.01,-17.03 -29.01,-25.14 c -4.96,-4.72 -9.81,-9.53 -14.55,-14.42 c -2.33,-0.31 -0.25,4.26 0.24,5.01 c 1.86,1.3 2.22,1.24 2.48,3.77 c -1.33,9.91 -0.66,18.95 -4.64,28.37 c -1.86,2.24 -3.48,4.65 -4.87,7.22 c 0.06,-1.97 0.21,-3.93 0.47,-5.89 c 2.26,-8.03 8.71,-26.26 3.28,-33.43 c -0.38,0.12 -0.62,0.38 -0.71,0.78 c -3.74,7.91 -6.6,16.12 -8.57,24.64 c -0.09,7.32 2.62,18.01 4.8,25.04 c 13.84,25.05 29.32,47.05 49.48,67.51 c 2.85,6.75 7.19,10.76 11.45,16.52 c 0.61,1.51 -0.95,1.76 -1.85,0.83 c -7.27,-9.04 -14.57,-18.06 -21.92,-27.05 c -4.49,-4.77 -9,-9.49 -13.52,-14.18 c -0.93,0.59 0.53,2.41 0.78,3.09 c 10.06,15.53 20.1,31.05 30.15,46.58 c 0.72,0.96 1.18,2.02 1.38,3.2 c -0.57,-0.05 -1.14,-0.06 -1.71,-0.05 c -13.01,-20.1 -26.07,-40.17 -39.18,-60.21 c -2.05,-3.25 -4.19,-6.43 -6.41,-9.54 c -0.67,0.96 3.23,7.59 3.93,8.87 c 0.25,0.3 0.56,0.54 0.91,0.7 c -0.03,0.75 0.58,2.16 -0.79,1.96 c -0.75,-0.76 -1.59,-1.39 -2.51,-1.89 c 0.18,-0.81 0.11,-1.59 -0.22,-2.34 c -3.02,-5.93 -6.1,-11.82 -9.25,-17.67 c -1.17,-1.76 -2.56,-3.31 -4.17,-4.64 c -0.15,1.02 0.01,2.01 0.48,2.97 c -1.79,1.7 -1.8,-1.68 -4.16,0.42 c 0.19,-0.97 -0.81,-2.15 -1.43,-1.03 c -0.19,1.35 -0.53,2.67 -1.02,3.95 c 0.5,11.99 -1.42,23.56 -4.92,35.05 c -0.42,11.33 -1.43,22.54 -2.61,33.8 c -0.11,0.75 -0.35,1.46 -0.72,2.12 c -0.79,0.18 -1.2,-0.16 -1.22,-1.02 c 0.8,-8.7 1.48,-17.42 2.04,-26.14 c -0.02,-1.36 -0.49,-1.54 -1.4,-0.52 c -4.13,8.35 -8.78,15.35 -15.88,21.28 c -0.28,-0.35 -0.56,-0.69 -0.86,-1.01 c -0.48,-0.66 -1.62,-4.87 -2.8,-3.71 c -3.19,6.14 -6.19,12.36 -9.01,18.69 c -1.31,0.31 -1.85,-0.18 -1.62,-1.48 c 3.4,-7.13 6.75,-14.27 10.06,-21.44 c 0.28,-3.08 0.46,-6.17 0.54,-9.28 c 0.66,0.01 1.33,0.01 1.99,0.01 c -0.34,1.39 -0.55,2.79 -0.62,4.21 c -1.02,1.21 0.67,1.72 1,2.68 c -0.25,0.98 -1.38,6.69 0.88,6.07 c 0.53,0.02 1.06,0.04 1.58,0.06 c -0.29,0.3 -0.31,0.61 -0.06,0.94 c 0.51,0.07 0.95,-0.06 1.34,-0.41 c 6.38,-6.23 11.55,-15.87 14.61,-24.21 c 0.54,-2.58 0.95,-5.19 1.21,-7.82 c 0.37,-8.09 1.38,-16.1 3.04,-24.02 c 0.05,-0.48 -0.09,-0.88 -0.44,-1.19 c -1.55,0.54 -2.26,2.3 -2.86,3.71 c -3.35,12.29 -7.73,24.2 -13.17,35.73 c -0.57,2.06 -1.06,4.14 -1.49,6.23 c -1.19,-0.24 -2.37,-0.21 -3.55,0.1 c -0.08,-0.42 -0.07,-0.83 0.02,-1.25 c 1.52,-2.8 2.89,-5.67 4.12,-8.61 c 1.15,-4.54 2.39,-9.06 3.72,-13.56 c 0.83,-2.64 1.8,-5.22 2.91,-7.74 c 1.77,1.09 -2.36,5.28 -0.63,7.8 c 0.83,-2.37 1.76,-4.71 2.79,-7.03 c 0.24,-1.03 0.45,-2.05 0.63,-3.09 c 1.01,-0.75 1.2,-1.65 0.58,-2.72 c -1.43,0.21 -3.18,-0.35 -2.72,2.03 c -0.62,0.04 -1.1,0.34 -1.42,0.88 c -1.16,2.27 -2.55,4.38 -4.17,6.34 c -0.69,0.05 -1.39,0.04 -2.07,-0.04 c 3.04,-6.07 5.79,-12.87 11.49,-16.94 c 2.94,-3.76 6.18,-18.45 5.51,-22.67 c -11.29,-22.77 -15.05,-40.45 -4.99,-64.65 c 0.46,-0.14 0.93,-0.28 1.39,-0.42 c 1.95,0.64 2.45,0.04 1.48,-1.77 c -1.19,0.15 -2.21,0.65 -3.06,1.5 c -1.97,-0.16 -4.57,1.36 -6.27,2.27 c -16.14,10.65 -32.99,20.19 -47.63,32.93 c -0.33,0.3 -0.65,0.28 -0.94,-0.06 c -0.12,-0.69 -0.3,-1.34 -0.57,-1.96 c -2.5,1.71 -4.84,3.62 -7.01,5.74 c -1.07,1.55 -2.13,3.09 -3.19,4.63 c -0.61,-0.08 -0.85,-0.42 -0.72,-1.03 c 1.46,-6.83 18.46,-16.74 23.71,-21.93 c 2.85,-2.47 7.99,-4.88 10.19,-7.69 c 3.29,-8.28 18.32,-18.6 25.08,-24.86 c 4.02,-2.66 -0.04,-8.15 -0.74,-11.62 c -1.64,-5.8 -0.47,-13.5 -0.52,-19.6 c 0.53,-11.77 10.43,-15.01 12.66,-20.46 c 0.94,-19.18 2.88,-39.74 7.59,-58.26 c 0.32,-0.64 0.8,-0.84 1.45,-0.6 c 0.35,0.94 0.44,1.91 0.28,2.92 c -2.72,13.43 -8.71,44.54 -5.51,56.72 c -0.76,1.85 -1.31,3.77 -1.64,5.74 Z M 306.2,986.95 c -1.02,2.69 -1.76,5.44 -2.21,8.26 c -1.9,0.08 -2.47,-0.76 -1.72,-2.54 c 5.87,-20.03 15.75,-37.75 28.9,-53.95 c 1.09,-0.92 1.67,-0.68 1.74,0.7 c -2.51,3.77 -5.1,7.5 -7.77,11.19 c -8.16,11.78 -14.04,22.84 -18.94,36.34 Z M 320,999.98 c 0.68,1.1 1.54,2.02 2.57,2.76 c 1.64,-1.03 -1.41,-6.04 -2.57,-2.76 Z M 302.89,1001.19 c 0.28,-0.11 1.54,-0.48 0.69,-0.96 c -0.43,0.17 -0.66,0.49 -0.69,0.96 Z M 280.01,1027 c 0.98,4.9 2.93,9.37 5.86,13.41 c 1.25,0.26 2.28,-1.24 3.47,-1.58 c 1.09,-1.2 2.25,-2.36 3.45,-3.46 c 2.38,-2.12 2.6,-0.26 2.01,1.9 c 1.1,2.98 2.97,5.45 6.38,3.39 c 12.51,-10.14 28.38,-21.29 16.71,-38.96 c -0.72,-0.15 -1.37,0.05 -1.92,0.58 c -8.04,5.03 -8.72,13.53 -15.54,19.41 c -0.7,1.76 -1.42,3.48 -2.15,5.18 c -0.52,0.21 -0.93,0.07 -1.22,-0.43 c -1.01,-3.45 5.01,-12.87 7.18,-15.81 c 2.95,-3.23 5.74,-6.57 8.39,-10.03 c -1.55,-1.77 -4.95,0.15 -6.5,1.24 c -11.21,9.41 -15.01,13.66 -10.9,28.73 c -0.23,1.46 -0.86,1.68 -1.88,0.68 c -1.62,-4.13 -2.69,-9.19 -1.74,-13.59 c -1.51,-2.47 -12.16,5.01 -11.6,9.34 Z M 279.99,1035.91 c 0.09,1.07 1.73,10.24 3.82,7.57 c 0.34,-1.68 -2.2,-6.83 -3.82,-7.57 Z M 287.66,1044.83 c 0.64,4.22 4.96,11.01 9.28,5.64 c 1.13,-2.86 -2.98,-8.07 -4.18,-10.65 c -0.25,-0.27 -0.51,-0.28 -0.79,-0.03 c -2.25,1.22 -3.98,2.36 -4.31,5.04 Z M 284.11,1047.02 c 0.44,1.33 3.38,7.23 4.94,6.31 c -0.15,-0.96 -3.74,-10.06 -4.94,-6.31 Z M 299.75,1047.97 c 0.52,1.03 0.86,1.01 1.01,-0.07 c -0.16,-0.6 -0.86,-1.81 -1.62,-1.21 c -0.12,0.58 0.09,1.01 0.61,1.28 Z M 257,1070.78 c 0.39,0.16 0.79,0.17 1.19,0.03 c 1.77,-1.38 3.68,-2.54 5.73,-3.48 c 6.87,-3.46 13.74,-6.92 20.6,-10.39 c 4.12,-2.96 -0.36,-5.83 -2.13,-8.44 c -0.36,0.07 -0.69,0.22 -0.98,0.45 c -8.16,6.43 -16,13.23 -23.52,20.4 c -0.43,0.39 -0.73,0.87 -0.89,1.43 Z M 301.86,1051.15 c 0.14,1.5 0.94,2.06 2.42,1.68 c 0.86,-1.26 -1.43,-2.1 -2.42,-1.68 Z M 296.17,1055.66 c -0.13,1.14 -0.13,2.27 0,3.4 c -0.25,0.8 -0.33,1.62 -0.24,2.46 c 0.41,1.57 0.8,1.55 1.16,-0.07 c 0.09,-0.8 0.14,-1.6 0.14,-2.4 c 0.85,-1.09 1.12,-5.13 -1.06,-3.39 Z M 324.06,1077.9 c 0.1,0.39 0.19,0.79 0.29,1.19 c 0.26,0.72 0.8,1.06 1.62,1.01 c 0.05,0.34 0.09,0.69 0.14,1.04 c 0.9,0.86 2.13,3.61 3.66,2.46 c -0.54,-0.77 -1.42,-2.67 -2.58,-2.38 c -0.18,-0.62 -0.58,-1 -1.22,-1.12 c 0.07,-0.61 -0.19,-0.98 -0.76,-1.11 c -0.2,-0.56 -0.58,-0.93 -1.15,-1.09 c -0.05,-0.67 -0.28,-1.28 -0.68,-1.82 c -5.04,-6.04 -9.92,-12.2 -14.64,-18.49 c -0.94,-1.51 -2.27,-2.28 -3.99,-2.33 c -0.41,0.22 -0.54,0.55 -0.39,0.99 c 0.82,0.45 1.59,0.97 2.3,1.59 c 0.51,1.18 1.11,2.32 1.81,3.4 c 1.18,1.79 2.62,3.32 4.32,4.58 c 2.04,4.27 6.4,7.86 9.46,11.44 c 0.5,0.5 1.11,0.71 1.81,0.64 Z M 299.25,1066.99 c 0.48,2.05 1.34,3.93 2.57,5.65 c 4.22,4.71 2.66,4.62 5.95,-0.31 c 1.01,-5.62 -2.21,-11.54 -5.74,-15.71 c -0.33,-0.36 -0.69,-0.38 -1.06,-0.07 c -0.78,3.44 -1.36,6.92 -1.72,10.44 Z M 288.95,1102.05 c 0.24,1.59 0.91,5.28 2.65,5.75 c -0.16,-1.4 -0.3,-2.83 -0.43,-4.29 c -0.01,-0.75 -0.35,-1.28 -1,-1.59 c -0.86,-12.46 -1.17,-24.82 -0.85,-37.43 c 0.09,-0.93 -0.17,-1.72 -0.77,-2.38 c -1.27,2.17 -2.31,4.46 -3.11,6.87 c -1.97,5.23 -0.96,7.43 0.33,12.55 c 0.25,6.91 0.63,14.03 3.18,20.52 Z M 293.32,1073.87 c -0.38,4.98 -1.68,35.22 2.23,36.92 c 0.32,-1.39 0.45,-2.81 0.41,-4.28 c -0.66,-6.67 -0.75,-13.34 -0.25,-20.02 c -0.52,-4.51 -0.86,-9.03 -1.02,-13.57 c 0.69,-3.21 0.96,-7.11 -1.62,-9.6 c -0.83,-0.95 -2.12,-0.45 -1.5,0.68 c 2.71,2.95 0.66,6.4 1.75,9.87 Z M 251.22,1077.91 c -1.8,0.27 -3.18,1.18 -4.13,2.74 c 0.9,1.22 3.71,-1.84 4.13,-2.74 c 1.68,0.14 11.17,-5.74 10.33,-6.97 c -2.05,0.82 -9.56,5.39 -10.33,6.97 Z M 298,1081 c 0.19,3.65 0.42,7.3 0.68,10.94 c -0.03,0.49 0.18,0.81 0.61,0.96 c 1.42,-3.61 2.86,-7.24 4.3,-10.89 c 0.33,-0.84 0.5,-1.71 0.51,-2.61 c -0.1,-1.48 -5.02,-7.46 -5.66,-4.54 c -0.08,2.05 -0.23,4.1 -0.44,6.14 Z M 291.21,1121.15 c 0.08,0.76 0.49,1.23 1.24,1.41 c 0.43,-0.38 0.51,-0.85 0.26,-1.41 c 0.22,-1.39 0.13,-2.76 -0.26,-4.12 c -3.16,-6.25 -5.57,-12.77 -7.25,-19.57 c -0.17,-1.74 -0.52,-3.45 -1.06,-5.11 c -0.55,-2 -0.02,-9 -0.92,-10.23 c -0.22,3.77 -0.29,7.56 -0.22,11.38 c 0.32,2.69 0.71,5.37 1.16,8.04 c 1.7,6.76 4.05,13.3 7.05,19.61 Z M 295.96,1117.99 c -0.08,0.66 0.09,1.23 0.51,1.71 c 0.72,-0.84 0.71,-1.66 -0.02,-2.48 c -0.35,0.13 -0.51,0.39 -0.49,0.77 Z M 301.74,1126 c -0.08,1.04 0.2,1.96 0.83,2.75 c 0.93,-0.65 0.26,-2.06 0.2,-2.96 c -0.32,-2.23 -0.63,-6.06 -2.33,-7.61 c -0.38,0.33 -0.51,0.75 -0.41,1.27 c 0.71,1.97 1.09,4 1.14,6.09 c 0.1,0.29 0.29,0.44 0.57,0.46 Z M 306.8,1135.84 c 2.31,4.29 4.64,8.58 6.97,12.88 c 2.23,3.36 4.74,6.48 7.5,9.38 c 0.72,1.6 1.81,2.87 3.28,3.81 c 0.26,-0.65 0.15,-1.27 -0.32,-1.86 c -0.5,-0.96 -1.22,-1.69 -2.15,-2.19 c -5.04,-7.48 -9.82,-15.14 -14.36,-22.97 c -0.6,-1.08 -2.22,-5.6 -3.34,-5.76 c -0.44,0.25 -0.55,0.62 -0.34,1.11 c 0.86,1.93 1.78,3.79 2.76,5.6 Z M 290.2,1143.8 c 4.23,-0.75 7.3,-10.67 3.41,-12.49 c -1.16,4.13 -2.29,8.3 -3.41,12.49 Z M 303.77,1143.84 c 3.25,5.65 6.49,11.3 9.75,16.94 c 0.33,0.66 0.85,1.05 1.56,1.19 c 0.02,1.12 0.2,2.22 0.53,3.3 c -0.43,0.54 -0.87,0.54 -1.34,0.02 c -3.79,-5.86 -8.76,-14.28 -11.62,-20.41 c 0.37,-0.35 0.75,-0.7 1.12,-1.04 Z M 291.78,1161.24 c 1.78,-0.66 1.46,-3.78 0.77,-5.09 c -0.94,0.8 -0.4,3.85 -0.77,5.09 Z"/></g>
<g><path fill="#393939" d="M 270.37,1192.06 c 1.18,-0.31 2.36,-0.34 3.55,-0.1 c -0.89,3.65 -1.61,7.33 -2.18,11.04 c -0.52,-0.02 -1.05,-0.04 -1.58,-0.06 c 0.45,-2.53 0.97,-5.06 1.55,-7.58 c 0.06,-0.49 -0.07,-0.91 -0.38,-1.28 c -0.7,0.92 -1.38,1.85 -2.05,2.79 c -0.33,-0.96 -2.02,-1.47 -1,-2.68 c 0.77,-0.64 1.46,-1.35 2.09,-2.13 Z"/></g>
<g><path fill="#424242" d="M 274.13,1165.07 c 0.68,0.08 1.38,0.09 2.07,0.04 c -1.8,4.12 -3.39,8.31 -4.78,12.58 c -0.72,2.67 -1.39,5.34 -2.02,8.03 c -0.06,1.43 -0.23,2.85 -0.5,4.26 c -0.66,0 -1.33,0 -1.99,-0.01 c 1.26,-8.62 3.67,-16.92 7.22,-24.9 Z"/></g>
<g><path fill="#515151" d="M 281.14,1160.9 c 0.16,-1.02 0.38,-2.02 0.65,-3.01 c -0.46,-2.38 1.29,-1.82 2.72,-2.03 c 0.62,1.07 0.43,1.97 -0.58,2.72 c -0.18,1.04 -0.39,2.06 -0.63,3.09 c -1.03,2.32 -1.96,4.66 -2.79,7.03 c -1.73,-2.52 2.4,-6.71 0.63,-7.8 Z"/></g>
<g><path fill="#585858" d="M 269.74,1207.19 c 0.3,0.32 0.58,0.66 0.86,1.01 c -0.29,2.74 -0.46,5.5 -0.5,8.3 c -0.04,2.13 -2.06,2.05 -1.96,-0.03 c 0.46,-3.11 0.89,-6.21 1.29,-9.3 c 0.1,0.01 0.21,0.01 0.31,0.02 Z"/></g>
</svg>
